<mxfile host="app.diagrams.net" modified="2024-02-08T22:06:02.835Z" agent="Mozilla/5.0 (Macintosh; Intel Mac OS X 10_15_7) AppleWebKit/537.36 (KHTML, like Gecko) Chrome/120.0.0.0 Safari/537.36" etag="Vn1-xYmV68eZbHsPzeLQ" version="23.1.1" type="device">
  <diagram name="Page-1" id="2YBvvXClWsGukQMizWep">
    <mxGraphModel dx="794" dy="506" grid="1" gridSize="10" guides="1" tooltips="1" connect="1" arrows="1" fold="1" page="1" pageScale="1" pageWidth="850" pageHeight="1100" math="0" shadow="0">
      <root>
        <mxCell id="0" />
        <mxCell id="1" parent="0" />
        <mxCell id="WqjskhSdfqY2lvUTHhSA-6" value="" style="group;fontFamily=Source Sans 3;fontSource=https%3A%2F%2Ffonts.googleapis.com%2Fcss%3Ffamily%3DSource%2BSans%2B3;" parent="1" vertex="1" connectable="0">
          <mxGeometry x="40" y="10" width="840" height="470" as="geometry" />
        </mxCell>
        <mxCell id="WqjskhSdfqY2lvUTHhSA-1" value="Web App" style="rounded=1;whiteSpace=wrap;html=1;fontFamily=Source Sans 3;fillColor=#778CA1;strokeColor=none;fontSource=https%3A%2F%2Ffonts.googleapis.com%2Fcss%3Ffamily%3DSource%2BSans%2B3;fontColor=#CCCCCC;" parent="WqjskhSdfqY2lvUTHhSA-6" vertex="1">
          <mxGeometry x="337" width="90" height="40" as="geometry" />
        </mxCell>
        <mxCell id="WqjskhSdfqY2lvUTHhSA-2" value="" style="verticalLabelPosition=bottom;html=1;verticalAlign=top;strokeWidth=1;align=center;outlineConnect=0;dashed=0;outlineConnect=0;shape=mxgraph.aws3d.application;fillColor=#4286c5;strokeColor=#57A2D8;aspect=fixed;fontFamily=Source Sans 3;fontSource=https%3A%2F%2Ffonts.googleapis.com%2Fcss%3Ffamily%3DSource%2BSans%2B3;fontColor=#CCCCCC;" parent="WqjskhSdfqY2lvUTHhSA-6" vertex="1">
          <mxGeometry x="417" width="16.94" height="18.8" as="geometry" />
        </mxCell>
        <mxCell id="WqjskhSdfqY2lvUTHhSA-5" value="" style="group;fontFamily=Source Sans 3;fontSource=https%3A%2F%2Ffonts.googleapis.com%2Fcss%3Ffamily%3DSource%2BSans%2B3;" parent="WqjskhSdfqY2lvUTHhSA-6" vertex="1" connectable="0">
          <mxGeometry y="30" width="840" height="440" as="geometry" />
        </mxCell>
        <mxCell id="aM9ryv3xv72pqoxQDRHE-1" value="Browser" style="shape=umlLifeline;perimeter=lifelinePerimeter;whiteSpace=wrap;html=1;container=0;dropTarget=0;collapsible=0;recursiveResize=0;outlineConnect=0;portConstraint=eastwest;newEdgeStyle={&quot;edgeStyle&quot;:&quot;elbowEdgeStyle&quot;,&quot;elbow&quot;:&quot;vertical&quot;,&quot;curved&quot;:0,&quot;rounded&quot;:0};fontFamily=Source Sans 3;fillColor=#647687;fontColor=#CCCCCC;strokeColor=#647687;rounded=1;shadow=0;fontSource=https%3A%2F%2Ffonts.googleapis.com%2Fcss%3Ffamily%3DSource%2BSans%2B3;" parent="WqjskhSdfqY2lvUTHhSA-5" vertex="1">
          <mxGeometry width="100" height="430" as="geometry" />
        </mxCell>
        <mxCell id="aM9ryv3xv72pqoxQDRHE-5" value="Citrix ADC" style="shape=umlLifeline;perimeter=lifelinePerimeter;whiteSpace=wrap;html=1;container=0;dropTarget=0;collapsible=0;recursiveResize=0;outlineConnect=0;portConstraint=eastwest;newEdgeStyle={&quot;edgeStyle&quot;:&quot;elbowEdgeStyle&quot;,&quot;elbow&quot;:&quot;vertical&quot;,&quot;curved&quot;:0,&quot;rounded&quot;:0};fontFamily=Source Sans 3;fillColor=#647687;strokeColor=#647687;rounded=1;glass=0;shadow=0;fontSource=https%3A%2F%2Ffonts.googleapis.com%2Fcss%3Ffamily%3DSource%2BSans%2B3;fontColor=#CCCCCC;" parent="WqjskhSdfqY2lvUTHhSA-5" vertex="1">
          <mxGeometry x="285" width="100" height="400" as="geometry" />
        </mxCell>
        <mxCell id="aM9ryv3xv72pqoxQDRHE-7" value="Request to access the protected web app" style="verticalAlign=bottom;endArrow=block;edgeStyle=elbowEdgeStyle;elbow=horizontal;curved=0;rounded=0;fontFamily=Source Sans 3;targetPerimeterSpacing=0;jumpStyle=none;strokeColor=#CCCCCC;startArrow=none;startFill=0;labelBackgroundColor=none;html=1;fontStyle=0;fontSource=https%3A%2F%2Ffonts.googleapis.com%2Fcss%3Ffamily%3DSource%2BSans%2B3;fontColor=#CCCCCC;" parent="WqjskhSdfqY2lvUTHhSA-5" edge="1">
          <mxGeometry relative="1" as="geometry">
            <mxPoint x="55" y="80" as="sourcePoint" />
            <Array as="points">
              <mxPoint x="140" y="80" />
            </Array>
            <mxPoint x="330" y="80" as="targetPoint" />
          </mxGeometry>
        </mxCell>
        <mxCell id="aM9ryv3xv72pqoxQDRHE-8" value="SAML Response + RelayState" style="html=1;verticalAlign=bottom;endArrow=blockThin;dashed=1;endSize=6;edgeStyle=elbowEdgeStyle;elbow=vertical;curved=0;rounded=0;fontFamily=Source Sans 3;labelBackgroundColor=none;endFill=1;fontSource=https%3A%2F%2Ffonts.googleapis.com%2Fcss%3Ffamily%3DSource%2BSans%2B3;fontColor=#CCCCCC;strokeColor=#CCCCCC;" parent="WqjskhSdfqY2lvUTHhSA-5" edge="1">
          <mxGeometry relative="1" as="geometry">
            <mxPoint x="60" y="200" as="targetPoint" />
            <Array as="points">
              <mxPoint x="155" y="200" />
            </Array>
            <mxPoint x="600" y="200" as="sourcePoint" />
          </mxGeometry>
        </mxCell>
        <mxCell id="aM9ryv3xv72pqoxQDRHE-9" value="SAML Request + RelayState" style="html=1;verticalAlign=bottom;endArrow=block;edgeStyle=elbowEdgeStyle;elbow=vertical;curved=0;rounded=0;dashed=1;align=center;fontFamily=Source Sans 3;labelBackgroundColor=none;fontSource=https%3A%2F%2Ffonts.googleapis.com%2Fcss%3Ffamily%3DSource%2BSans%2B3;fontColor=#CCCCCC;strokeColor=#CCCCCC;" parent="WqjskhSdfqY2lvUTHhSA-5" edge="1">
          <mxGeometry relative="1" as="geometry">
            <mxPoint x="330" y="120" as="sourcePoint" />
            <Array as="points">
              <mxPoint x="150" y="120" />
            </Array>
            <mxPoint x="60" y="120" as="targetPoint" />
          </mxGeometry>
        </mxCell>
        <mxCell id="aM9ryv3xv72pqoxQDRHE-10" value="SAML Request + RelayState" style="html=1;verticalAlign=bottom;endArrow=block;dashed=1;endSize=6;edgeStyle=elbowEdgeStyle;elbow=vertical;curved=0;rounded=0;align=right;fontFamily=Source Sans 3;labelBackgroundColor=none;endFill=1;fontSource=https%3A%2F%2Ffonts.googleapis.com%2Fcss%3Ffamily%3DSource%2BSans%2B3;fontColor=#CCCCCC;strokeColor=#CCCCCC;" parent="WqjskhSdfqY2lvUTHhSA-5" edge="1">
          <mxGeometry relative="1" as="geometry">
            <mxPoint x="600" y="160" as="targetPoint" />
            <Array as="points">
              <mxPoint x="140" y="160" />
            </Array>
            <mxPoint x="60" y="160" as="sourcePoint" />
          </mxGeometry>
        </mxCell>
        <mxCell id="rcqq1bqFRg6czQBBrsoR-1" value="Microsoft 365 Login" style="shape=umlLifeline;perimeter=lifelinePerimeter;whiteSpace=wrap;html=1;container=0;dropTarget=0;collapsible=0;recursiveResize=0;outlineConnect=0;portConstraint=eastwest;newEdgeStyle={&quot;edgeStyle&quot;:&quot;elbowEdgeStyle&quot;,&quot;elbow&quot;:&quot;vertical&quot;,&quot;curved&quot;:0,&quot;rounded&quot;:0};fontFamily=Source Sans 3;fillColor=#647687;strokeColor=#647687;shadow=0;rounded=1;fontSource=https%3A%2F%2Ffonts.googleapis.com%2Fcss%3Ffamily%3DSource%2BSans%2B3;fontColor=#CCCCCC;" parent="WqjskhSdfqY2lvUTHhSA-5" vertex="1">
          <mxGeometry x="530" width="160" height="200" as="geometry" />
        </mxCell>
        <mxCell id="rcqq1bqFRg6czQBBrsoR-5" value="SAML Response + RelayState" style="html=1;verticalAlign=bottom;endArrow=block;edgeStyle=elbowEdgeStyle;elbow=horizontal;curved=0;rounded=0;fontFamily=Source Sans 3;labelBackgroundColor=none;fontSource=https%3A%2F%2Ffonts.googleapis.com%2Fcss%3Ffamily%3DSource%2BSans%2B3;fontColor=#CCCCCC;strokeColor=#CCCCCC;" parent="WqjskhSdfqY2lvUTHhSA-5" edge="1">
          <mxGeometry relative="1" as="geometry">
            <mxPoint x="60" y="240" as="sourcePoint" />
            <Array as="points">
              <mxPoint x="145" y="240" />
            </Array>
            <mxPoint x="330" y="240" as="targetPoint" />
          </mxGeometry>
        </mxCell>
        <mxCell id="rcqq1bqFRg6czQBBrsoR-6" value="&lt;b&gt;&lt;font color=&quot;#ff6666&quot;&gt;/cgi/samlauth&lt;/font&gt;&lt;/b&gt;" style="text;html=1;strokeColor=none;fillColor=none;align=center;verticalAlign=middle;whiteSpace=wrap;rounded=0;fontFamily=Source Sans 3;container=0;fontSource=https%3A%2F%2Ffonts.googleapis.com%2Fcss%3Ffamily%3DSource%2BSans%2B3;" parent="WqjskhSdfqY2lvUTHhSA-5" vertex="1">
          <mxGeometry x="374.5" y="220" width="60" height="30" as="geometry" />
        </mxCell>
        <mxCell id="rcqq1bqFRg6czQBBrsoR-9" value="Set NSC_TMAA/NSC_TMAS cookie + &lt;br&gt;code in response" style="html=1;verticalAlign=bottom;endArrow=block;edgeStyle=elbowEdgeStyle;elbow=vertical;curved=0;rounded=0;align=center;fontFamily=Source Sans 3;labelBackgroundColor=none;fontSource=https%3A%2F%2Ffonts.googleapis.com%2Fcss%3Ffamily%3DSource%2BSans%2B3;fontColor=#CCCCCC;strokeColor=#CCCCCC;" parent="WqjskhSdfqY2lvUTHhSA-5" edge="1">
          <mxGeometry relative="1" as="geometry">
            <mxPoint x="330" y="280" as="sourcePoint" />
            <Array as="points">
              <mxPoint x="150" y="280" />
            </Array>
            <mxPoint x="60" y="280" as="targetPoint" />
          </mxGeometry>
        </mxCell>
        <mxCell id="rcqq1bqFRg6czQBBrsoR-10" value="code" style="html=1;verticalAlign=bottom;endArrow=block;endSize=6;edgeStyle=elbowEdgeStyle;elbow=vertical;curved=0;rounded=0;align=center;fontFamily=Source Sans 3;labelBackgroundColor=none;endFill=1;fontSource=https%3A%2F%2Ffonts.googleapis.com%2Fcss%3Ffamily%3DSource%2BSans%2B3;fontColor=#CCCCCC;strokeColor=#CCCCCC;" parent="WqjskhSdfqY2lvUTHhSA-5" edge="1">
          <mxGeometry relative="1" as="geometry">
            <mxPoint x="330" y="360" as="targetPoint" />
            <Array as="points">
              <mxPoint x="140" y="360" />
            </Array>
            <mxPoint x="60" y="360" as="sourcePoint" />
          </mxGeometry>
        </mxCell>
        <mxCell id="rcqq1bqFRg6czQBBrsoR-11" value="&lt;b&gt;&lt;font color=&quot;#ff6666&quot;&gt;/cgi/selfauth&lt;/font&gt;&lt;/b&gt;" style="text;html=1;strokeColor=none;fillColor=none;align=center;verticalAlign=middle;whiteSpace=wrap;rounded=0;fontFamily=Source Sans 3;container=0;fontSource=https%3A%2F%2Ffonts.googleapis.com%2Fcss%3Ffamily%3DSource%2BSans%2B3;" parent="WqjskhSdfqY2lvUTHhSA-5" vertex="1">
          <mxGeometry x="374.5" y="340" width="60" height="30" as="geometry" />
        </mxCell>
        <mxCell id="rcqq1bqFRg6czQBBrsoR-12" value="If the code is valid and the user has permissions, then he authenticates successfully" style="rounded=0;whiteSpace=wrap;html=1;align=left;fontFamily=Source Sans 3;strokeColor=none;fillColor=none;container=0;fontSize=10;fontSource=https%3A%2F%2Ffonts.googleapis.com%2Fcss%3Ffamily%3DSource%2BSans%2B3;fontColor=#CCCCCC;" parent="WqjskhSdfqY2lvUTHhSA-5" vertex="1">
          <mxGeometry x="480" y="360" width="330" height="40" as="geometry" />
        </mxCell>
        <mxCell id="rcqq1bqFRg6czQBBrsoR-13" value="200 OK" style="html=1;verticalAlign=bottom;endArrow=block;edgeStyle=elbowEdgeStyle;elbow=vertical;curved=0;rounded=0;align=center;fontFamily=Source Sans 3;labelBackgroundColor=none;fontSource=https%3A%2F%2Ffonts.googleapis.com%2Fcss%3Ffamily%3DSource%2BSans%2B3;fontColor=#CCCCCC;strokeColor=#CCCCCC;" parent="WqjskhSdfqY2lvUTHhSA-5" edge="1">
          <mxGeometry relative="1" as="geometry">
            <mxPoint x="330" y="400" as="sourcePoint" />
            <Array as="points">
              <mxPoint x="150" y="400" />
            </Array>
            <mxPoint x="60" y="400" as="targetPoint" />
          </mxGeometry>
        </mxCell>
        <mxCell id="rcqq1bqFRg6czQBBrsoR-23" value="200 OK" style="text;html=1;strokeColor=none;fillColor=none;align=center;verticalAlign=middle;whiteSpace=wrap;rounded=0;fontStyle=3;fontColor=#7EA6E0;fontFamily=Source Sans 3;container=0;fontSource=https%3A%2F%2Ffonts.googleapis.com%2Fcss%3Ffamily%3DSource%2BSans%2B3;" parent="WqjskhSdfqY2lvUTHhSA-5" vertex="1">
          <mxGeometry x="355" y="260" width="60" height="30" as="geometry" />
        </mxCell>
        <mxCell id="rcqq1bqFRg6czQBBrsoR-24" value="200 OK" style="text;html=1;strokeColor=none;fillColor=none;align=center;verticalAlign=middle;whiteSpace=wrap;rounded=0;fontStyle=3;fontColor=#7EA6E0;fontFamily=Source Sans 3;container=0;fontSource=https%3A%2F%2Ffonts.googleapis.com%2Fcss%3Ffamily%3DSource%2BSans%2B3;" parent="WqjskhSdfqY2lvUTHhSA-5" vertex="1">
          <mxGeometry x="355" y="60" width="60" height="30" as="geometry" />
        </mxCell>
        <mxCell id="rcqq1bqFRg6czQBBrsoR-25" value="302 Redirect" style="text;html=1;strokeColor=none;fillColor=none;align=center;verticalAlign=middle;whiteSpace=wrap;rounded=0;fontStyle=3;fontColor=#7EA6E0;fontFamily=Source Sans 3;container=0;fontSource=https%3A%2F%2Ffonts.googleapis.com%2Fcss%3Ffamily%3DSource%2BSans%2B3;" parent="WqjskhSdfqY2lvUTHhSA-5" vertex="1">
          <mxGeometry x="355" y="100" width="99" height="30" as="geometry" />
        </mxCell>
        <mxCell id="rcqq1bqFRg6czQBBrsoR-26" value="302 Redirect" style="text;html=1;strokeColor=none;fillColor=none;align=center;verticalAlign=middle;whiteSpace=wrap;rounded=0;fontStyle=3;fontColor=#7EA6E0;fontFamily=Source Sans 3;container=0;fontSource=https%3A%2F%2Ffonts.googleapis.com%2Fcss%3Ffamily%3DSource%2BSans%2B3;" parent="WqjskhSdfqY2lvUTHhSA-5" vertex="1">
          <mxGeometry x="630" y="180" width="100" height="30" as="geometry" />
        </mxCell>
        <mxCell id="rcqq1bqFRg6czQBBrsoR-4" value="Since the users comes from &lt;b style=&quot;font-size: 10px;&quot;&gt;Sharepoint&lt;/b&gt;, they already have an &lt;b style=&quot;font-size: 10px;&quot;&gt;authenticated session &lt;/b&gt;on the &lt;b style=&quot;font-size: 10px;&quot;&gt;Microsoft 365&lt;/b&gt; login page, so there is no need to insert the credentials." style="rounded=0;whiteSpace=wrap;html=1;align=left;fontFamily=Source Sans 3;strokeColor=none;fillColor=none;container=0;fontSize=10;fontSource=https%3A%2F%2Ffonts.googleapis.com%2Fcss%3Ffamily%3DSource%2BSans%2B3;fontColor=#CCCCCC;" parent="WqjskhSdfqY2lvUTHhSA-5" vertex="1">
          <mxGeometry x="630" y="90" width="180" height="70" as="geometry" />
        </mxCell>
        <mxCell id="rcqq1bqFRg6czQBBrsoR-28" value="1" style="ellipse;whiteSpace=wrap;html=1;aspect=fixed;fontFamily=Source Sans 3;fillColor=#647687;strokeColor=#314354;fontColor=#CCCCCC;container=0;fontSource=https%3A%2F%2Ffonts.googleapis.com%2Fcss%3Ffamily%3DSource%2BSans%2B3;" parent="WqjskhSdfqY2lvUTHhSA-5" vertex="1">
          <mxGeometry x="40" y="70" width="20" height="20" as="geometry" />
        </mxCell>
        <mxCell id="rcqq1bqFRg6czQBBrsoR-29" value="2" style="ellipse;whiteSpace=wrap;html=1;aspect=fixed;fontFamily=Source Sans 3;fillColor=#647687;strokeColor=#314354;fontColor=#CCCCCC;container=0;fontSource=https%3A%2F%2Ffonts.googleapis.com%2Fcss%3Ffamily%3DSource%2BSans%2B3;" parent="WqjskhSdfqY2lvUTHhSA-5" vertex="1">
          <mxGeometry x="325" y="110" width="20" height="20" as="geometry" />
        </mxCell>
        <mxCell id="rcqq1bqFRg6czQBBrsoR-30" value="3" style="ellipse;whiteSpace=wrap;html=1;aspect=fixed;fontFamily=Source Sans 3;fillColor=#647687;strokeColor=#314354;fontColor=#CCCCCC;container=0;fontSource=https%3A%2F%2Ffonts.googleapis.com%2Fcss%3Ffamily%3DSource%2BSans%2B3;" parent="WqjskhSdfqY2lvUTHhSA-5" vertex="1">
          <mxGeometry x="40" y="150" width="20" height="20" as="geometry" />
        </mxCell>
        <mxCell id="rcqq1bqFRg6czQBBrsoR-31" value="4" style="ellipse;whiteSpace=wrap;html=1;aspect=fixed;fontFamily=Source Sans 3;fillColor=#647687;strokeColor=#314354;fontColor=#CCCCCC;container=0;fontSource=https%3A%2F%2Ffonts.googleapis.com%2Fcss%3Ffamily%3DSource%2BSans%2B3;" parent="WqjskhSdfqY2lvUTHhSA-5" vertex="1">
          <mxGeometry x="600" y="190" width="20" height="20" as="geometry" />
        </mxCell>
        <mxCell id="rcqq1bqFRg6czQBBrsoR-32" value="5" style="ellipse;whiteSpace=wrap;html=1;aspect=fixed;fontFamily=Source Sans 3;fillColor=#647687;strokeColor=#314354;fontColor=#CCCCCC;container=0;fontSource=https%3A%2F%2Ffonts.googleapis.com%2Fcss%3Ffamily%3DSource%2BSans%2B3;" parent="WqjskhSdfqY2lvUTHhSA-5" vertex="1">
          <mxGeometry x="40" y="230" width="20" height="20" as="geometry" />
        </mxCell>
        <mxCell id="rcqq1bqFRg6czQBBrsoR-33" value="6" style="ellipse;whiteSpace=wrap;html=1;aspect=fixed;fontFamily=Source Sans 3;fillColor=#647687;strokeColor=#314354;fontColor=#CCCCCC;container=0;fontSource=https%3A%2F%2Ffonts.googleapis.com%2Fcss%3Ffamily%3DSource%2BSans%2B3;" parent="WqjskhSdfqY2lvUTHhSA-5" vertex="1">
          <mxGeometry x="325" y="270" width="20" height="20" as="geometry" />
        </mxCell>
        <mxCell id="rcqq1bqFRg6czQBBrsoR-34" value="7" style="ellipse;whiteSpace=wrap;html=1;aspect=fixed;fontFamily=Source Sans 3;fillColor=#647687;strokeColor=#314354;fontColor=#CCCCCC;container=0;fontSource=https%3A%2F%2Ffonts.googleapis.com%2Fcss%3Ffamily%3DSource%2BSans%2B3;" parent="WqjskhSdfqY2lvUTHhSA-5" vertex="1">
          <mxGeometry x="40" y="350" width="20" height="20" as="geometry" />
        </mxCell>
        <mxCell id="rcqq1bqFRg6czQBBrsoR-35" value="8" style="ellipse;whiteSpace=wrap;html=1;aspect=fixed;fontFamily=Source Sans 3;fillColor=#647687;strokeColor=#314354;fontColor=#CCCCCC;container=0;fontSource=https%3A%2F%2Ffonts.googleapis.com%2Fcss%3Ffamily%3DSource%2BSans%2B3;" parent="WqjskhSdfqY2lvUTHhSA-5" vertex="1">
          <mxGeometry x="325" y="390" width="20" height="20" as="geometry" />
        </mxCell>
        <mxCell id="rcqq1bqFRg6czQBBrsoR-8" value="The &lt;b style=&quot;font-size: 10px;&quot;&gt;&lt;i style=&quot;font-size: 10px;&quot;&gt;RelayState &lt;/i&gt;&lt;/b&gt;contains the URL used to create the redirect triggered from the response body, pointing to the &lt;span style=&quot;font-size: 10px;&quot;&gt;target&lt;/span&gt; domain." style="rounded=0;whiteSpace=wrap;html=1;align=left;fontFamily=Source Sans 3;strokeColor=none;fillColor=none;container=0;fontSize=10;fontSource=https%3A%2F%2Ffonts.googleapis.com%2Fcss%3Ffamily%3DSource%2BSans%2B3;fontColor=#CCCCCC;" parent="WqjskhSdfqY2lvUTHhSA-5" vertex="1">
          <mxGeometry x="480" y="220" width="330" height="60" as="geometry" />
        </mxCell>
        <mxCell id="rcqq1bqFRg6czQBBrsoR-38" value="200 OK" style="text;html=1;strokeColor=none;fillColor=none;align=center;verticalAlign=middle;whiteSpace=wrap;rounded=0;fontStyle=3;fontColor=#7EA6E0;fontFamily=Source Sans 3;container=0;fontSource=https%3A%2F%2Ffonts.googleapis.com%2Fcss%3Ffamily%3DSource%2BSans%2B3;" parent="WqjskhSdfqY2lvUTHhSA-5" vertex="1">
          <mxGeometry x="355" y="380" width="60" height="30" as="geometry" />
        </mxCell>
        <mxCell id="rcqq1bqFRg6czQBBrsoR-40" value="&lt;font style=&quot;font-size: 10px;&quot;&gt;NSC_TMAA / NSC_TMAS created and released&lt;/font&gt;" style="text;whiteSpace=wrap;html=1;fontFamily=Source Sans 3;fontSource=https%3A%2F%2Ffonts.googleapis.com%2Fcss%3Ffamily%3DSource%2BSans%2B3;fontColor=#CCCCCC;" parent="WqjskhSdfqY2lvUTHhSA-5" vertex="1">
          <mxGeometry x="520" y="280" width="250" height="30" as="geometry" />
        </mxCell>
        <mxCell id="rcqq1bqFRg6czQBBrsoR-42" value="&lt;font style=&quot;font-size: 10px;&quot;&gt;NSC_TMAA / NSC_TMAS validated&lt;/font&gt;" style="text;whiteSpace=wrap;html=1;fontFamily=Source Sans 3;fontSource=https%3A%2F%2Ffonts.googleapis.com%2Fcss%3Ffamily%3DSource%2BSans%2B3;fontColor=#CCCCCC;" parent="WqjskhSdfqY2lvUTHhSA-5" vertex="1">
          <mxGeometry x="520" y="400" width="250" height="30" as="geometry" />
        </mxCell>
        <mxCell id="rcqq1bqFRg6czQBBrsoR-44" value="" style="shape=image;verticalLabelPosition=bottom;labelBackgroundColor=default;verticalAlign=top;aspect=fixed;imageAspect=0;image=data:image/png,iVBORw0KGgoAAAANSUhEUgAAAgAAAAIACAYAAAD0eNT6AAAAAXNSR0IArs4c6QAAIABJREFUeAHtnQmYJVV5/tlBUAQE9w3ijigifyQCLgn6ICQaNcYYlWhUMIlbTJQkamzjEjE6Sjvd9X2neqZ10CidiBrc94UYYgTFKK64IIiCIqhsA8P777p9e6anp7d7b9Wp5fx4Hp7pvl1Vp857fu/3fadu1amdduI/FEABFEABFEABFEABFEABFEABFEABFEABFEABFEABFEABFEABFEABFEABFEABFEABFEABFEABFEABFEABFEABFEABFEABFEABFEABFEABFEABFEABFEABFEABFEABFEABFEABFEABFEABFEABFEABFEABFEABFEABFEABFEABFEABFEABFEABFEABFEABFEABFEABFEABFEABFEABFEABFEABFEABFEABFEABFEABFEABFEABFEABFEABFEABFEABFEABFEABFEABFEABFEABFEABFEABFEABFEABFEABFEABFEABFEABFEABFEABFEABFGiYAhob2015fgeZPUB5fpzM/lDuT1EIfyH3U2R2mtxfoRDeuN3/7m+Xuy/4/03b/T2E1/b3fVH/OE/rHdfsMcqyoxTCfZRlt9fMzB4Nk4TTQQEUQAEUQIF2KiD3AxXC4f1kfmovgbu/Ve6bFMKH5X6e3L8ns1/JXQ34/1q5Xyr38/vn945eMeH+NwrhT5XnR2ti4o7tHA3OGgVQAAVQAAVKUkDueyvPHySzJ8n95f1Z+Kfk/u3Z369rQEKvqqgo+vZNuX9otshZrxD+TiE8WXn+UE1NHVCSvBwGBVAABVAABepVoLg83pvJh/DM2aT/Jrl/vD9TrirBtv2418j9fxXCO3tfPxRfZ0xOHqKxsV3qHUlaRwEUQAEUQIFlFJD73WV2otz/fvb78X+T+//JfXOHZ/Mxi43iK4bzFELWvx/hSE1P77XMUPAxCqAACqAAClSjgMbH95X7Y2X2GmXZJ+V+FYk++r0IN8n9QrlPyuwZyvODqxltjooCKIACKJCsAtqw4c69O+Ddz1AI5zKzj57s13q14XKZndN/euFYjY/vmSy0dBwFUAAFUGAwBYrvm+V+hEJ4sdxn5H4Zs/vGJvyVCwOz38r9M3L/Z5mdoE2b9hmMBrZGARRAARTotAJav/52/Rl+8Vx88TjbyomFv7dVn5t6V3CKtRGKJw+knTsNNp1DARRAARTYXoHeLL9IAEUimPsOv/g+ua1JjfMefuwu762tUCyc5H7b7SnhNxRAARRAgU4o0Fu1bu5xvHfL/UoSPgXPdgyY3Sj3T/XXJji0E9DTCRRAARRIVYFicRmZndy7McydWf7wM+UUrzL8SMVNn+7Hpuof+o0CKIACrVJAk5P7L0j6PIdP0h+9eDH7QW9pY7MHtMoMnCwKoAAKdF0BTU/vtzXpz13KHT3okzjRcGkGiqWMxzQ5ed+u+4r+oQAKoEAjFdC6dbfqLQBTrCtP0idZL52sq9blgv6NpHdppEk4KRRAARTokgLK8/v33zT3i+1u4qonAVSdYDh+O8Z1S/9pkuJpgt275Df6ggIogAK1KtCb7RePas09skdSbEdSTHWcftorUCcnD6nVNDSOAiiAAm1WoLdYi7vL7NfM9nlsr2UMbLsqMDOzR5t9yLmjAAqgQBQFigVZ5P4CuX+tZQE/1Rkv/V7tiozZz+R+uqam7hXFRDSCAiiAAm1SQO536t1dbfYrEj+z/Y4ysKW3JkUIx7fJm5wrCqAAClSigLLsIf3lWHlmf7WZJH/v0tWG83uPro6N7VaJsTgoCqAACjRRgeIlLLMvZTm+v0Jfl4I6faFIGZSBH/ZfX8y7CJoYrDgnFECBchQo3s/em/W4F4upDBoo2R7NuszANb2lh/P8ruW4jaOgAAqgQAMU0Pj4vnJ/ldx/TuKn8IGBFRm4Qe4bZHbvBliXU0ABFECB4RTQpk37KIQXk/hXDPhdntXSt+Gv2myR+wxPDgwXe9gLBVCgJgV6l/rdT5F78b51kgAawMDwDBQ3x25Snh9ck51pFgVQAAVWV0AzM3toLvFfRuKn8IGBEhmYe9+Fa8OGO6/uRLZAARRAgUgKFOuf92/uu5igX2LQH37WyIy7u9pd279Z8A6R7E0zKIACKLCjAhob20UhPGs2+f+AxE/ih4GIDMwtj/3PxcqZOzqTT1AABVCgQgXk/jCZ/TdBP2LQ7+6slisWw4/tL3o32s7M7Fqh3Tk0CqAACuy0k/L8rr2bksxuIfmT/GGgIQyYfVUhPJIYhQIogAKlKyD3vXtr9btfR9BvSNAfftbIjLur2pmdwxMDpYc/DogCaSrQW7bX/Sly/xGJn8QPAy1gYO6JgTO0YcNt0oxa9BoFUGBkBWR25Oya/ecS9FsQ9Ls6o6Vfo1ytKR7HPaW4WXfkYMABUAAF0lBA69ffTu7vEN/zjxJ82Zfk3QwGipt1Qzg8jehFL1EABYZWQHOX+1mzn+TVjOTFOJQ1Djf11g/YtGmfoYMDO6IACnRTgWKFMZmdzeV+LvfDQKcZ+L7Mfr+bUYxeoQAKDKRA/ya/UzS3sEhZsw2Ow8wVBprKwNxXe5s0NXXAQMGCjVEABbqjQPHK0dlnhz/LjK/TMz4ScVMTcf3ndbnM/rg7EY2eoAAKrKpAf+3+0+RevHucBIEGMJAyA3NrB9x11cDBBiiAAu1WoPdon/s3SfwUPjAAAwsYuKp4r0e7oxtnjwIosKQCve/6Q3ix5hYJYcaX8oyPvsP/8gy8r3gMeMkgwocogALtU0ATE3fju35mewtmeyTA5RMg2rgX9wac0L5IxxmjAApsp0Bxk4/MfknwpwCAARhYMwNzTwqcoZmZPbYLKPyCAijQfAWKdcDl7ms2PDMiZn4wAAM7MvAVTU7et/kRjzNEARToKaAsO0ru3yP5M+ODARgogYHrFMKLCa8ogAINVkBjY7v1X9lbLPvJbAYNYAAGymOgWCmUGwQbnAE4tWQVUJbdnhv9KHoo/GCgUgbMfiL3hyUbaOk4CjRNAeX5Q+X+o0qNz0yqvJkUWqJluxm4ga8EmpYFOJ8kFei975tn+0ko7U4ojF87x+9Mue+dZOCl0yhQpwKant5L7jmzfi75wgAM1MjABcrzg+uMhbSNAkkp0F/Y539qND0ztnbO2Bg3xq0KBn4h98cmFYTpLArUoYCy7FFy/znJn1kfDMBAYxgwu7n3BNLY2C51xEXaRIFOK9Bby9/9HzVntCqqeI7J7BAGYGBUBt5XLELW6WBM51AgpgIaH99T7u9uTLVPkBw1SLI/DHWXAbNvaGrqHjFjJG2hQCcV0OTk/rOX/T9H8udyLwzAQIsYKF4odGQngzKdQoEYCmhy8hC5f6tFpu/urIYZK2MLA4MxYPZbhfD4GLGSNlCgUwoUq21xsx8zPoo/GGg1A8U9S2Yv7FRwpjMoUKUCMnuS3K9ttfGZLQ02W0Iv9Oo2A2eIJwSqTBscuwsKFEtsyn0LyZ+ZHwzAQKcYKF4mxMqBXUhT9KFsBTQzs6vc13fK8N2e0TBjZXxhYHAGziteXFZ2/OR4KNBaBfrL+n6Q5M+MDwZgIAEGvi/332ltwObEUaAsBYpLYgrhEwmYntnS4LMlNEOzrjJwudwPKyuOchwUaJ0Ccr+tQjiX5M+sDwZgIDkGzH6pEP5f6wI3J4wCoyrQW+DH/bzkTM+MrqszOvoF24MzYPYrmf3uqPGU/VGgNQooz+8g9wtJ/sz6YAAGkmdgbsGg41sTwDlRFBhWAbnfXe7fTd70zJYGny2hGZp1l4EbWDVw2KzCfq1QQFl2T7lfTPJn1gcDMAADixgwu1EhPLkVwZyTRIFBFJD7/eR+KaZfZPruzmiYrTK2MDAoA3OvO//zQWIr26JAoxXoJ/+fk/xJ/jAAAzCwKgNbZHZyo4M6J4cCa1Gg/53/jzD9qqZntjTobIntYaarDMy9ROipa4mxbIMCjVRAWXYXvvMn8VP8wQAMDMXAZrmf1MjgzkmhwEoKaOPGg+T+TYw/lPGZ2XV1Zke/YHswBq6T+6NXirX8DQUapUBvhT/380n+JH8YgAEYGJmB4tXoxzYqyHMyKLCUAtq0aR+5fxHTj2x6ZkqDzZTQC726zMDVcj9iqZjLZyjQCAW0bt2tFMJnSf4kfxiAARgomYEsu0JmD2hEsOckUGChApqZ2WP2xRYfxvQlm55ZXZdndfQNvgdl4FJNTh6yMPbyMwrUqoDGxnaR+wzJn+QPAzAAA5UzcHHxPpVagz6No8C8AnJ/E6av3PSDzhTYntklDHSXga8U91vNx2D+RYFaFJhd3ve5JH+SPwzAAAxEZ+BDmpnZtZbAT6MoILMT5H4Txo9ufGZ23Z3ZMbaM7SAMrCMToUB0BZRlD5R78WjKILCyLXrBAAzAQJkMmL0wegKgwXQV0IYNd5b7JSR/ih8YgAEYqJ2BLXL/o3QzEj2PpoA2bLjNLGxfw/S1m55ZVJmzKI4FT+1moFgy+GHREgENpadAccOJzM4h+ZP8YQAGYKBxDPxUU1P3SC8z0eMoCsjdMX3jTM/Mrd0zN8aP8SuTgf8r3sUSJSHQSDoKyOz5JH+SPwzAAAw0nIHiKu3Y2C7pZCd6WqkCxXdLcr8B4zfc+MykypxJcSx4ai8DZq+sNClw8DQUUJbdXmY/IfmT/GEABmCgNQxsUQiPSyNL0ctKFOjd9BfCJzB9a0zf3hkLs03GDgbKZuAqXhxUSWpM46ByfzPJn+QPAzAAA61loHhke+80Mha9LE0BhfBEmd2C8Vtr/LJnExyPGSoMtJEBs3eVlhg4UPcV0OTkfeV+Dcmf5A8DMAADnWDgL7ufuejhyAr0V/q7CNN3wvTM2No4Y+Oc4bZ8BjbL/diREwQH6LYCcn8fyZ/kDwMwAAOdY+DS4qmubmcweje0AnI/FdN3zvTMpsqfTaEpmraTAbOPSdp56CTBjt1UoPe9v9lvKQAoAFrNgNmv5H5VRf/z+msSfzsT//bj9oJuZjF6NZQCmpnZQ+5faXXg3x7wLpiUPqx1TLPsIzJ7RMHxUAYYYCeNj++pEI5Xln0Ov1Ast5SB6xTCoQNgz6ZdVkDu/9JSkEmSa02S3d3uTXVc0izWWuflWBQALY6bXyuK2S7nNfq2BgVmZzKPkvuWFoNMEdDd5L7a2J5XR/Kft5XGxnaTO0/MpMvfanw2++8hvGWeZf5NUAFNTu4v90tI/sxkWsmA2cl123b2XoMXtVI7knazk3OM8SkWejN7TN0eov2aFJD7ewleJP/WMmD24Jqss7XZ3r0HMYI1bZCwq2HgMrkfuBVofkhDAbn/eWsDfzVGIMC0TdfJyfvW7VZl2VH4iCK65Qy8v24f0X5EBZTnB7PUL0Gr5UGrKNgOi2ibJZtSCA/vgI4Uv20rfss+3xCetyTgfNg9BWaDFq/4LdtAHC9+Esmyh9TtToXwSAoAiunWM1CsAZPnB9ftJ9qvWAGZPbv1sJJs4yfbZmr+sIrtsurhZfb7+IkCoBMMZNlHVgWeDdqrQHGzh9yv7ASszUxIJOa441L7y01kdgJ+ogDoDANmT2tvhuPMV1RAZmd1BtS4iYbE3ky9H70i8BH+qBD+AE9RAHSIgSu1ceNBEaxDEzEVkNmJHYKUhNzMhBx7XB4b00NLtaUQnoivKAA6xsA7lmKdz1qqgMbH92XBH4JUx4JUUWycVLcl5f6UDuoau5CjveYV9LUX13V7uzPty2yCIEUB0DkGQnhi3SaV2dM6p2vzkhEFQvwx+aEmJm5dt79of0QFlOdHs9Y/yb+TSSqEPxnRHiPvLrOTO6lt/IRDkm+a5mb/OrJBOEB9CvReXer+TQIUBUAnGQjh6fW5a65lhfAXndS2acmI84lfIJndLLMj6/YY7Q+pwOzM/1UEJ5J/Zxkwe/aQ1ihtN7mf0ll9Sbrxk27zNL9AMzO7lmYYDhRHAWXZXVSs7tQ8oDAVY1IOAw1YvnR2XY2/xmMU2R1n4NQ4WYtWSlNAZu/qOJTlJBGScZt1/OvSDDPkgeT+EnxGAdBpBrLsCk1P7zekRdgttgK9G/+Kdz2T3Nqc3Dj31fl9SWxvLW5PIfwdPqMA6DwDIbxlMfv83kAFJO2sEP6n80CunhxIoN3X6GV1W1Ah/ANeowBIgIHNasDrt+v2e+Pb57EkglECwWi+uPvHug3Jjbb4LRm/mZ1Tt99ofwUF5L43K/4RkJIJSO6vXsEOUf4ks9ckpPd84cW/3b+6tvQYm50QxVg0MrgCcn8dwYgCICEGXje4S8rdQ+6vT0jvpZNCqskwzX5fNMv87uW6iKONrIAmJu4m92sJRhQACTFw+sjGGfEAs1fd3pSQ3hQAaSb9xeP+ghFtw+5lKyD3GQIRyT8xBt5ato8GPZ7c1yWm+eJkwO/pFQVXaf362w3qFbavSAFl2VHisT8CUXqBaH1FllrzYeX+dgoACu8EGVi3ZpOwYbUKyP3jCQJIwk8v4S8ec6/WWasfXSFkeI8CIDkGzK5Xnt91dYewRaUKKMuOSQ4+Et/iRJjq7xsrNdcaDq4QpvAfBUCSDJhNrMEibFKlAnL/TJLwUQSkmvQX9vvMKr21lmPL/R34jwIgUQY2K88PXotP2KYCBZTnv5coeAuTAD+nWgyZnVWBrQY6pNzfjQcpABJmIB/IMGxcngJy/3zC4JH4U0388/02O7s8Nw13JJmdhQcpAJJlwOxmhXCf4dzDXkMrILMTkoVuPgHwb9pFUAOWJpXZ2fiQAiBpBkJ459CJjB2HU0Du5yUNHck/7eRfjL/Zx4ZzT3l7yf0/8SEFQNIMFFcB8vz+5bmKI62ogEJ4fNLAkfxJ/nMFwKdXNEqEP86uwfERvEgBAAP+ngh2o4ne637NvgpwBB0Y8C/WHRFmH8P9JOOAF2HAt8jswXX7sfPtM/sn2BBstjJwXt2GVwifZTy2jgdXptK+OjlTtx87377MvkDAIeDAQI+B8+s2vEI4l7HAjzDQuyfnZk1N3atuT3a2fZkdCWgEGxjYysDX6zY7N+NuHQtm/2nP/ufH/+11e7Kz7fPMMcGG5L8dA9+q2+xyP58x2W5M5hMB/6ZZEFzLmwIriErKsnvK/SaCDcEGBrYycHEFVhvokHK/kPHYOh4k/TST/uJxf8VAJmLj1RWQ2dsINAQaGNiOgUtWd061W8j9IsZkuzFZnAz4Pb2i4Oeant6rWucldHSNj+8r92sINAQaGNiOgcvrDgNy/y5jst2YkPDTS/g7jrnZc+r2Zmfal9lpBBmCDAzswMAv6ja53H/IuOwwLjsmBJJiapp8W2Nju9Ttz9a3L/fd5X4JQYYgAwM7MHBN3QaX2U8Ylx3GJbVkR3+XKvDMTqzbn61vX2YnE2AIMDCwJAPX1W1wuV/O2Cw5NiTFpZJiSp+Z1b5Ud93xYeT25X4BAYYAAwNLMGB288gGG/EAcr+SsVlibFJKdPR1+WIvyx4yosXS3X32RSNHEVwILjCwAgM1f88o96sZnxXGh+S4fHJMQRuzkG4GH7Hncs8JLgQXGFiBgZmZPUa02Ui7y/1axmeF8UkhydHHlYqc32jDhtuMZLIUd9bExK1l9muCC8EFBlZgYNOmfeqMDzK7kfFZYXxIjislx1T+9tw6PdrKthXC8wgsBBYYWIWBycn96zS43LcwRquMEUVAKol+uX7W/tbOOmPEUG0ry75MYCGwwMAqDGTZ7YcyWAk7aWZmV8ZnlfEh+S+XFNP6PITDS7BcGodQnj+IwEJggYE1MJBld6krKmh8fE/GaA1jRBGQVrJfarxDGK/Lp61rV+7rCSwEFhhYAwNZds+6DN67T2epYMdnJDwY2J4Bs1/Jfe+6vNqadrVu3a3kfhXBfw3BH5Ntb7IU9TC7d13m1vT0fvgUn8LAGhkwe0ZdXm1Nu6z8t0aYUkx29HnHgieEQ+sytzZuPIjgj19hYM0MfL4ur7amXbl/EaDWDNSOCYEkmZYmNd5cJPc74VW8CgMDMJDn929NMo59opqauhcwDQATyT6tZL/UeGfZUbF9Ot+eJibuhl/xKwwMxMDp8/7h30UKyP0VwDQQTCTApZJiSp+F8PBFNor2qyYnD8Gv+BUGBmLgEkk7RzNpmxqS+4XANBBMFAApJful+hrCI+vyuEK4D37FrzAwMAMPq8uzjW1Xk5P3BaSBQaIAWCoppvSZ2WPqMrVCOBTP4lkYGJiBdXV5trHtKoR/AqSBQaIASCnZL9VXsxPrMrXMHoxn8SwMDMiA2U9U81s864oZy7Yrs28A0oAgLZUQ+CytosjsCcuaquI/yOxIPItnYWAIBrLsmIrt2Z7Dy/1+QDQERCT7tJL9UuNt9sd1OV15fjS+xbcwMAQDLA28LWzJ7DVANARESyUEPkurKDB72jYnxf1JeX4cvsW3MDAUA5cXL9OK69iGtib3i4BoKIjSSnYUNzuOt9nJddla7o/Gt/gWBoZkoMYneOqKGTu0y5v/hoSHZLhjMkxTk+fuYKpIH8j9sQR//AsDQzMwGcmqzW1G7q8DoKEBIgmmmfQXjvtf1uVumZ2Id/EuDAzJQJZdobGx3erybyPa5e7/IeEh8S1Mgun+HMKL6zKyQng8wR//wsAIDGTZo+ryb+3tKs/vCjwjwEMRkG7i3zb2f1uXkRXCk/Ev/oWBERgI4Y11+bf2duV+CvCMAM+2JEAiTFeLv6/LyDJ7Kv7FvzAwEgMX1uXf2tuV+/uBZyR4SPzpJv65sQ/hn+oyssyegX/xLwyMyMDExN3q8nBt7cp9d7lfDTwjwpN6Aky9/yG8ti4TK4Rn4V/8CwMjMmD2nLo8XFu7yrJHAc6I4KSe/Oi/VON3iArheXgYD8PAiAyE8O+1JeK6Gpb76YAzIjgkQL4CCeEtNXr4L/EwHoaBkRm4prgiXpePa2lX7hcCzsjgkABTL4JqXFNc7i/Cw3gYBkpgIM+PqyUR19Go3O8ks1sApwRwUk+Aqfc/hKwODxdtyuyleBgPw0ApDLy+Lh9Hb1dmzwGaUqDhCkDqBYD7hugG7jcos9PwMT6GgVIYOL8uH0dvVyH8O9CUAg0FAAXApugGni8A3F+Bj/ExDJTAwNwV8TvV5eVo7WpsbJfZ7w6vApoSoCH5UQC5vyeaeRc1NOvhV+NjfAwDJTEQwjMXWax7vyrLHggwJQFDAUAB4P4fdUUJhfBavIyXYaA0BrwuL0drV+6nAkxpwJAAKYI+GM28ixoq1iDAy3gZBkpj4JuLLNa9X+W+CWBKA4YCgALgo3VFCbm/GS/jZRgoiYHiPoCpqQPq8nOUduX+fYApCRiSHwWQ+6eiGHeJRuR+Bl7GyzBQKgMnLWG1bnykPL8DsJQKCwmQIujzdUUHmU3gZ/wMAyUyYPaGuvxcebsyexKwlAgLyY8CyP1LlRt3mQZkFvAzfoaBEhkw+8Iydmv/xwrhLcBSIiwUABQA7v9bV2SQ+0b8jJ9hoEQGzK7XzMwedXm60nblfh6wlAgLBQAFgPvXKjXtCgeX+5n4GT/DQMkM5PnRK9iunX/SunW3ktmNwFIyLBQBqRcBF9UVEeT+HvyMn2GgdAb+ti5PV9au8vw4QCkdlNSTH/13/15lpl3lwCzpjZ+J6RUwYHb2KtZr35/l/nJgqQAWrgCkXgT8qK5ooBA+gKfxNAyUzsDP6/J0Ze1yubB0SFJPfPR/rvi7rDLTrnJguX+I4I+vYaACBrLsLqvYr11/ltk3AKUCULgCkHYhkGVX1BUJ5P5xPI2nYaACBkJ4XF2+Lr1djY/vKffNgFIBKBQAaRcA7leXbtg1HlBmn8bTeBoGKmHg5Wu0YfM3U5Y9BEgqgST15Ef/3a+tKwLI7Av4Gl/DQCUMnFmXr0tvV2YnA0klkJAAuQKyuXTDrvGAcv8SvsbXMFAJAxeu0YbN30xm/woklUBCAZB6AVC8QUzauY4oIPf/xdf4GgYqYWBzZ1YE5GahSgAh+aee/Lf1f/daCgCzrxL88TYMVMbAYXX4uvQ25X45kFQGCYXAtkSYqhZ7l27aNRyQJ3vwNHG9QgZCePoabNjsTeR+IJBUCAnJL9Wkv7Dft60jCsj923gbb8NARQyE8MY6fF1qmzL7fQCpCBCS/8IkmPLPB5Zq2jUeTO7fx9t4GwYqYiCED6/Ris3dTO5/AyAVAUIBkHLSX9j3O9URAeT+Y7yNt2GgIgbMflKHr0ttU+4OIBUBQgGwMAmm+/PU1D1KNe0aDyb3y/A23oaBChkYH993jXZs5masFlYhHBQA6Sb9hWM/NXWvOtyvLLuC4I+/YaBCBvL8QXV4u7Q2uUxYIRwLkwA/p1sM5Pn9SzPsAAeS+1UEf/wNAxUyYPaEASzZrE377wDYAiAVAkLiTzfxz499TbMEuf8Gb+NtGKiUgZc0K6sPcDYyewBwVAoHyW8+Cab8b54/dABblrapzK7H3/gbBipkwOxtpRk29oEUwuOBo0I4Uk569H1b8ZfnR8f2dtGezG7G3/gbBipl4IN1eLuUNme/I3wRcFQKx7YkQEJMVwuzR5Ri2AEOUrx/AG/jbRionIGvD2DLZm3KS4AqhyPdpEfBs23szX4/tvPlvjvBH3/DQMUMmP06trdLa0/u7wWQigEhEW5LhKlqYXZCaaZd44HkvjfextswEIGB9etvt0ZbNmszZdl/AUgEQFJNfPR7rvgx+8PYztf4+L54G2/DQAQGzI6M7e9S2pP7JQASARASYdpXAcyeVIphBziIpqYOwNt4GwaiMPCUAazZjE01M7Or3G8CkCiApJ0AUy+AQvjT2K5Xnt8Bb+NtGIjCwMtj+3vk9pRltweOKHCQ/CkAnjmyYQc8gLLsLvgbf8NAFAbeOqA969+cRYCigEHyTz35F/0P4S9iO15Zdk+CPx6HgSgMnBnb3yO3pzw/DjiiwEERQBFw6siGHfAAmpq6F/7G3zAQgYEs+8iA9qx/c4XwROCIAAfJjwLI/QWxHa88vz/+xt8wEIGBLPtybH+P3J57tGbqAAAgAElEQVTcnwscEeCgAKAAMHvpyIYd8AByPwx/428YiMLAxQPas/7NZ18UchpwRIGDBJh6EWR2WmzHy/0I/I2/YSAKA9fE9vfI7c2uFPYm4IgCBwUABcArRzbsgAdQlh2Fv/E3DERiYGZmjwEtWu/mct8IHJHgSD0Bpt5/s9fEdruy7Bj8jb9hIBIDExN3jO3xkdqT+weBIxIcqSfA1Ptv9oaRzDrEzgrhkfgbf8NAJAZCOHQIm9a3C+8BiARG6smP/qt462ZspyuE4wn+eBwGIjEQwiNje3yk9uT+beCIBAdJMPX7IM4YyaxD7CyzE/A3/oaBSAzU8L6PIcLCtl2UZVcARyQ4KABSLwAmtzkvzk8K4Q/wN/6GgUgMhPC8OM4uqZXZxwCvB45IcFAApF4A5CXZds2HYaEvvE18j8rA367ZnHVvqLGxXWR2C4BEBST1JJhy/98R2/Nyfwr+xt8wEIkBs+iP+g4dU7Rp0z6AEQkMZv8pJ/75vr97aLMOuaPc/wyP43EYiMbA64e0avzdtHHjQYARDYz5JMC/6RZDM7FdLrOT8Tgeh4FoDLTnlcCziwDdHTCigUHiTzfxz419CB+ooQB4Dh7H4zAQjQGP7fGh25P7/QAjGhgUABQAHx7arEPuKPdT8Dgeh4FoDJw5pFXj78abwqJBQfJPPfkX/Q/hE7FdLvcXEPzxOQxEY+C9sT0+dHsK4XDAiAYGRUDqRUAInx3arEPuKPeX4HE8DgORGAjh34e0avzdlOcPBYxIYKSe/Oh/cQXg3Ngul/vL8Dgeh4FoDLw/tseHbk/uDwOMaGBwBSD1IiDLvjy0WYfcUSH8Ax7H4zAQjYH/HNKq8Xeb/U7y4YARDQwKgNQLALOvxna53F+Fx/E4DERiIMs+EtvjQ7cn92MBIxIYqSc/+l+8DfAbQ5t1yB1l9ho8jsdhIBIDNdzoO2Ro2GknCoBIUJD8uPpRMGD2naHNOuSOMnsDwR+fw0A0Bj4+pFXj7yaz3wWMaGCQBFMvhMx+ENvlcn8THsfjMBCJgRCir/UxdExRlh0FGJHASD350f+iALx0aLMOuaPc34rH8TgMRGOgRTcB8hggs3ISc0wGfj5kHh96N7m/neAfLfjHZIm2mhi7zM4e2qyxd2QhIAIDySEqA1dF97i7McZRx5jE3MTEHOucWrUQUJY9kOBAcICBaAz8JnoBEMIU4xttfEn+sRJtc9tp1VLA9yE4EBxgIBoDN9RQALyT8Y02vhQAzU3MscbmHbE9PnR7yvO7EhwIDjAQiQGzW4Y265A7yv3djG+k8SX5xUqyzW0nhGxIq8bfTevX347gQHCAgYgMzMzsGtPpMjuL8Y04vhQBzU3OMcYmhLfE9PdIbWndulsRHAgOMBCRgenpvUYy7YA7y+xsxjfi+MZIMrTR5CLjdQNatL7NJe0ss1sIEAQIGIjEwIYNt4npeLn/J2MbaWxJzE1OzLHO7RUx/T1yW7OvC72WAEGAgIFIDExNHTCyaQc4wOwbPz/K2EYaWwqAWEm2ye38zQD2rH9Tuf+UAEGAgIFIDExM3DGm65Vln2RsI40tBUCTE3OcczN7dkx/j9yW3P+PAEGAgIFIDExM3G1k0w5wAGXZ5xjbSGNLARAnyTZZ5xAeP4A9699UIXyWAEGAgIFIDExOHhLT9QrhXMY20tg2OTFxbnGKkyw7Jqa/R25L7v9BgCBAwEAkBiYn7zuyaQc4gEL4H8Y20tiSZOMk2SbrHNnfA4SCpTeVuxMgCBAwEImBLHvg0k6s5lO5n8/YRhrbJicmzi1WcXJgNU6u6Khyfz0BggABA9EYOKIiKy95WLl/nbGNNraxkgztNLOg2aLIC30tafpBPpTZSwkQBAgYiMbAwwbx56jbyv0ixjba2JKYm5mY44yL2S9H9Wv0/eX+5wQIAgQMRGPg2Jgml/t3GdtoYxsn0aScZJvcd7PvxPR2KW3J/SQCBAECBqIx8OhSjLvGg8wW+D9kbKONLQVAkxN09ef2pTXasjmbKc+PJkAQIGAgGgOPjel+mf2EsY02thQA1SfZ5mpsdk5Mb5fSlszuTYAgQMBAJAZC+INSjLvGg8jsZ4xtpLFNOfnRd8lseo22bM5mmpo6gABBgICBSAyE8MSY7pf7LxjbSGNLEmzu7DzG2LTpVcDzQaj3RkD36wgSBAkYiMBACH8y770Y/8r9GsY1wrjGSDC00fQCo10vApoPQHL/HkGCIAEDERgI4enzvovxL2/7jDCmJOamJ+Y45xf56l5p8UPunyH4EyhgIAIDITyrNOOu4UBy38y4RhhXioA4SbbJOodw+Bos2bxNFMI7CRIECRiIwsApMSOAzG5hXKOMKwmwyck5xrlNT+8X09ultSX31xEkCBIwEIWBvy7NuKscqFiWlDGNMqYk/xgJttltXL2KHZv7Z7mfSqAgUMBAFAZeEisSaHx8T8Y0yphSADQ7OccYnwti+br0duT+WAIFgQIGojDwstINvMwBNTFxa8Y0ypjGSDC00ewi433L2LD5H2ty8hACBYECBqIw8I+xIoKmp/djTKOMKcm52cm5+vFp4xoA84Go912h2Y0EC4IFDFTOwKvnfVf1v9q48SDGs/LxrD65pJ5c29B/sxdW7edKjy+z7xAsCBYwUDkDr6vUyAsOLvc7MZ6VjycFQBsSdNXnGHmJ7wU2L+dHhfBhggXBAgYqZ+BN5Th29aPI/e6MZ+XjSQFQdXJtw/FDOHR1RzZ4C7mfQbAgWMBA5Qy8NVYY4N6eyseS5N+G5Fz1ORZrbUxM3DqWrytpRyE8j+BPwICByhlYX4mBlzioJifvy3hWPp4UAVUn2KYf3+wHS9ivXR8pz48mWBAsYKByBjxWZFAIhzKelY8nBUDTE3TV5xfCB2J5urJ2tGnTPnLfQsAgYMBApQxsrMzEiw6sEA5nLCsdS5J/1cm1DccP4bWLrNfOX+X+fQIGAQMGKmTA7F2xooPMjmQsKxzLNiQnzrH6Ii3yK74rix8yO5uAQcCAgQoZMDurMgMvOrDMfpexrHAsSa7VJ9d2aHy/RdZr569yHyNgEDBgoEIGzM6OFR2U58cxlhWOZTuSE0m62nG6QWNju8XydKXtKIQnEzAIGDBQIQNm51Rq4gUHl/ujGcsKx7LaxELiboe+5y+wXLt/VAj3IWAQMGCgQgbMPhYrSvCSrwrHsR3JiSKi6nEym47l58rb0djYLjL7LQmAwAEDlTHwmcqN3G9AZicyjpWNI8m16uTahuObvTSWn6O0oyz7MkGDoAEDlTHwxShG3mmnnWT2BMaxsnGkAGhDgq76HM0eE8vPUdpRCFMEDYIGDFTGwHlRjFwUANzTQ5KuOgGmfvw8v0MsP0dpRyH8FcG/suBPQEo9YLhfEMXIc1cAnoqX8TIMVMbAT2N5OVo7rB5WGSwkf5J/wcDXY5lZZs8g+ONnGKiMgZlYXo7WjmZmdpX71UBTGTQUAmkXAt+OZWaZPRsf42MYqIiBEF4cy8tR21EInwCaiqBJO/lR/LhfHMvMvOETDxPHK2TA7MhYXo7aziw0rwacCsGhCEi5ELgklpm5nwcPE8crYmDucfndY3k5ajsK4XjAqQgckn/Kyb/o++WxzCz3F+FjfAwDlTAQbT2PWPFiazuamLi13G8CnErAST0Bpt7/X2w1WsU/yOyleBgPw0AFDHTlFcDLxSC5XwA4FYDDFYDUC4BrlvNc2Z/L7DQ8jIdhoAIGzE4o26+NOp7c1wNOBeBQAKRdAJhdH8vos1fxXoGH8TAMlM7AFrnfNpaPa2lHZk8DnNLBSTv5UfxIZjfHMjSv98a/xPBKGLgwlodra0fudweeSuChCEi9EBgf3zOGseV+Oh7GwzBQMgMhZDH8W3sbcv8x8JQMT+rJj/4XBeBhMcw9u6rnB/Av/oWBkhkI4ekx/Ft7G3LPgadkeEiAXAFxf3PV5taGDXeW+3X4F//CQKkMbFGW3b5q/zbi+DJ7EvCUCg/JjwKouA/gRpk9oiqTy313uX8U7+JdGCidgf+tyreNO25xp6PcNwNR6RBRCFAIFLPzl8h97zKNL/cjZhfyOhfP4lkYqICBrj//vzgYyf3zgFQBSCRAiqA5BopC4AJl2SdH+t/sC9yzg0+J1RUzkGXHLM6Rnf5dIfwDUFUMFcUAxQAMwAAMNJ2BqzQ2tlunE/7izs3eSXw4BQAFAAzAAAzAQNIMmJ21OD92/ndJO8v9sqQHnsq86ZU55wejMAAD1TJg9uzOJ/ylOiizaQoAqn8YgAEYgIEkGTC7pXi0dqn82PnPFMKfJDnoVNTVVtToi74wAANtYMDsq51P9Mt1UJOT+/N6YCp/ikAYgAEYSJSBf1kuPybxudy/mOjAU6G3oULnHOEUBmCgKgZCeGQSiX65Tsr9bygAqP5hAAZgAAYSY+ByzczsulxuTOLz/trixXuQqTLRAAZgAAZgIBUG3p5Ekl+tk3wNQPFDAQgDMAADSTGQ58etlhuT+LvMXpjUwFPhp1Lh009YhwEYWIqBn2psbJckEvxqndTExB1ldjNFADMAGIABGICBzjNg9rbV8mJSf1eWfa7zg04lvFQlzGdwAQMwkBYDITw8qQS/WmcVwl9RAFD5wwAMwAAMdJyBS4ql8FfLiUn9XRs3HsSiQBi/48ZPa5bDrJbxhoGlGHhzUsl9rZ2V2adJABQBMAADMAADnWUgy45aa05Maju5n9rZQacSXqoS5jO4gAEYSImBH3P5f5myRu4Hyn0zRQDVPwzAAAzAQAcZOH2Z9MfHhQJyf18HBz2lCpe+MqODARiAgaUYyPP7k+lXUEBmJ1AAUPnDAAzAAAx0jIHPr5D6+FOhQLE6ktx/1LGBpxpeqhrmM7iAARhIhYEQnkmWX4MCCuGfKACo/mEABmAABjrCwNVy33sN6Y9NlOd3ZWlgjN8R4zPDS2WGRz9hfXkGePPfIKWN3D9EAqAIgAEYgAEYaD0DIRw+SP5LfluZPaH1g758NUiljDYwAAMwkAIDIfxP8gl9UAE0Nrab3C+jCKD6hwEYgAEYaC0DITxv0PzH9sUTAWZvaO2gp1DZ0kdmcDAAAzCwEgO/0fj4viT0IRRQnh8s9y0UAVT/MAADMAADLWQgHyL1scu8AnL/aAsHfaWKkL8xY4ABGICBFBjI84fO5zL+HUIBhXA8BQCVPwzAAAzAQMsY+MwQKY9dFisg9wtaNvBU9ylU9/QRzmEABpZn4KTFuYzfh1BAITyTAoDqHwZgAAZgoCUMfLtY1n6IdMcuixWQ++5yv6QlA09FvHxFjDZoAwMwkAIDz12cx/h9BAXk/nIKAKp/GIABGICBhjPwc01P7zVCumPXxQoUz1LK/ZqGD3wKlS19ZAYHAzAAA8sxYPbKxfmL30tQQO5vpQCg+ocBGIABGGgoA9fK/cAS0h2HWKyApqbuIfebGjrwVMTLVcR8DhswAANpMLB+cd7i9xIVkPt7KQCo/mEABmAABhrGwBZNTd2rxHTHoRYroBD+X8MGnco+jcq+/eNsdqPcv9Ivok+X2Wlyf5HcXyaz18h9UiF8Vu5X4jGSKwwMzMD7Fucrfq9AAbl/CDgHhrP9CYxCY5gx/LHM/lVmj9C6dbdaix0l7awQDpf738v9W3gNr8HAqgxskdmD1+IvthlRAbkfIbNbgHJVKIdJGOzTjULjMwrhcUUyH8VuvWIgyx4ls0/jN/wGA8syMDOKz9h3QAVkdjYwLgsjSbwbSXzwcTT7jsweM6Cd1rS5zE6Q+8X4Dt/BwAIGzG6W2QPWZCI2KkcBuR/Gq4IXQJhqwqPfC4uEt2t8fM9yHLb0UTQxcWu55yQAvAcDfQbM3rW0W/i0UgV4IoAgRBDqMXBT8b6MSs226OAyez6P5OI//Oc3yezei+zBrzEUmC0A7qfi8guzwIWzQH5Oi4ciAD01ht8Wt9G7x8DsevxHIZAwAxsX+4LfIyog900Jw0eyTyvZ7zjeIfxVRLvt0JTcT9Lc44U7nlvqY0P/u87EZuX5wTuYgg/iKVAsvMClSGYgiRaBHs9py7ck9+cmqn/XExz9W7mIs+VdwV+iKaAQpghAFAGJMXDRWp/rj2FEub8nMf1Jjisnx27rU1z1yrJ7xvAWbayiQP8dATcQgCgCkmBg7rGjI1exRdQ/a3Jyf5n9JAn9U0589H2usAlhPKrBaGxlBeR+OsGHAiAJBkLIVnZDPX+dLQCek4T+JMFuz+5XH9+reONfPTFm2VY1Pr7v7KNJPyMAUQR0nIFrlWW3X9YINf5BY2O7qViIaPUAmnoCof/tZuQlNdqMppdTgBkIyT+B5PP25fhvwucyOzmBMSCBtzuBjzJ+xbsxdm+C1ziHRQpobGwXuZ9PAKIQ6DAD91uEfaN+1aZN+8jstx3Wf5Tkwb5tLxzMTmyU4TiZ7RVQnh/Hi4IoADqZgLLsy9vT3szfWKET/3XUfx9ppuM4q+0UkNlZnQSw7dUz5z/aDNDslduB3tBfZPbH+I8ioGMMbC5Wnm2o5TithQr0Hwu8rmMAjpY8SL5d0O/YhZw39We53x3vUQB0igGztzXVb5zXEgoohNd2CkASeBcS+PB9MLuleBPfEqg38iNl2RX4jyKgEwyY/VLr19+ukUbjpJZWoHczkvulnQCQ5D984uyOdpcsTXozP5X7p/AeBUAnGKj5fRvNdHgLzkohPL0TAHYniZHIhx/Lr7TAcltPUe4fxXsUAB1g4MJifYutYPNDuxSQ+8c7ACGJc/jE2Q3tsuxzbXKe3D+P7ygAWs1AseR2lh3VJt9xrosUKF7YwHPJBKJWB6Ki+DH7wiK0G/2r3C9sveapF530/62NNhkntzYFZPZSghFFQMsZ+NraaG/GVnK/uuV6d+PKEUl82HH8cZtuum2G6xt6FpqZ2VVZ9mUCEkVAixm4vKH22uG0NDV1QIt1HjZhsF+Xig2zE3YAmw/aq4DcD5N7sZgDRkWDdjIwNXVAGxwos8fgM+JMixk4sw0+4xwHVGD2JQ6vbzGU7UxaFBvljVuWPWpA5GvZfNZjr8ZnFAAtZeBKbdx4UC3GodFqFdD09F5y/3ZLwSwvkZCU26rl66p1SDlHVwjn4jEKgFYyYPaMclzAURqpgMwewcuCCE6tDE7ujV8LQBMTd8Nf+KuV/jL7WCOTFidVrgJy91YCysy9rTP38s47hEPLdUO5R5u9z+Yf8RYFQOsYKF5hnWX3LNcNHK2RCmh8fF+Z/aB1kFIAlJdI26plg19K0v+K7XJ8RQHQQgb+spHJipOqRgFl2TEqVnpqayLgvFMtBn6jLLt9Na4Y7agyeyF+Ivm3kIH/lLTzaPSzd+sUkNlrWghrqomPfm8r+tY1zWxFUSL3q/ATBUDLGLicu/6bFk0inU/xkgeZ/XfLgCURbkuEqWqxWWYPjmSTNTUj9zPxEcm/VQwUr9hmwZ81+buzG80Grt+ZXSr4160ClwSYauJf2O/zNTOzRxOMKbNn4x+SfwsZOKMJ/uEcalZAITyrhfAuTAb8nGZRlNdsnZ3kfoTcr8U/FAAtY+DrxU2rdfuH9huigNxnWgYwST/NpL943F9Wl4U0NXUvmf0M35D8W8WA2fXF0vB1+YZ2G6iAJif3l9lPWgUyCXBxMkz195fHtpTy/GC5X4xfSP6tYyCEF8f2C+21QAG5P1ruW1oHNIVAqol/W79DeGOsR5kUwuFy/yk+Ifm3kIGPxvJJC1Iep7hYAYXw2hZCvS0RUAykq4XZWXK/7WKmy/xdIfwF3/mT+FsaIy/TxMQdy/QDx+qYAhob20VmH2sp4OkmPwqf+bH/odxPKtuW/Uv+78cXJP+WMrC5WPytbF9wvA4qoPXrbyf3IpDOB1X+RYu2MfApmT1m1MudxfroMnub3K/DD8SDFjPwgg6mKrpUlQL9x5sIeiT+tiX+xef7Xbn/i/L8OLnvvRa/aHLyvnI/VSF8guWySfotTvrzXjhzLdyzDQpspwDrAxD8OhD85oNg8e9Ncr9IIXxYIUzJbELub+6/HfM9vVUxzX7ZsT4v7D8/p1fQf22the92wZ9fUKBQQCFkBEQKARiAARhoHQPFuyl+h0yGAkMrIPfd5f5FzN868zPbS2+2x5gz5vMMbJHZiUMHfnZEgXkFZi+R3onnnikAKAJhAAZawkAI/zQfv/kXBUZWoHiERO6bCQAtCQDMhOZnQvwLC2kxYHZO8Tj3yEGfA6DAQgXk/tcUABQAMAADMNBYBr6p6en9FsZtfkaB0hRQCG/B/I01f1ozHWa2jDcMbGMgy67gpr/SUh0HWkqB3kqB7u+jCKAIgAEYgIHGMHCd8vzopWI2n6FAqQpo3bpbyf1LmL8x5t82C2BGhBYwkBoDxQvc/qjUIM/BUGAlBeR+oNy/RxFAEQADMAADtTLwopViNX9DgUoUkPv9xMppqc026C8zbBhoDgNvrSS4c1AUWIsC/TXWb2AGUOsMgIDcnIDMWDAWsRj4kGZmdl1LnGYbFKhMAZk9VWa3UARQBMAADMBAFAa+ok2b9qksqHNgFBhEgdkXrbwC40cxfqzZBe0wk4WBZjJwsfL8DoPEZ7ZFgcoVUAhvpAigCIABGICByhi4VJOTh1QezGkABQZVQNLOcp/E/JWZnxlZM2dkjAvjUj0DxUI/Zg8YNC6zPQpEU6BXBBTvWicgVB8Q0BiNYSAVBq6W+xHRAjkNocCwChR3ps4+IvheigCuBMAADMDAiAyY/Vbuxw4bj9kPBaIrIPfdVbyVihlKKjMU+gnrMFA+A9cpyx4VPYDTIAqMqkB/yeDPUASMOAMoP6gQqNEUBprPQPH69ZNGjcPsjwK1KSD3vWX2BYoAigAYgAEYWCMDZjcX66vUFrhpGAXKUqB4P7Xcz8f8azR/82cmzB4ZIxiojoEtCuGZZcVfjoMCtSvQKwKy7L8oAigCYAAGYGAZBoqZv/uf1x6wOQEUKFuBYulKZdknMf8y5q9uRsFsDW1hoOkMmN0osyeVHXc5Hgo0RgGNj++pED5AEUARAAMwAANbGbhW7o9tTKDmRFCgKgU0M7OHQvh3zL/V/MzOmj474/xgtDoGfqM8/72q4i3HRYHGKdBfLGgjRQBFAAzAQMIMXCX3hzUuQHNCKFC1Av13B5yRsPmZVVU3q0JbtG02A2Y/U54/qOo4y/FRoLEK9IoAs3+lCGAWCAMwkBADP1YI92lsYObEUCCmAnJ/lcxuSSgANHt2wuyR8YGBqhj4tqam7hEzvtIWCjRegWLlK5ldTxHATBAGYKCTDBRroWzceFDjgzEniAJ1KDC7TsAxcr+yk+ZnRlXVjIrjwlYbGJjR9PRedcRV2kSB1iggs3vL/bsUAcwCYQAGOsLAGRob26U1QZgTRYE6FZD7gQrh3I6Yvw2zE86RWTQMlM/ATTJ7fp2xlLZRoJUKFJfLZHYWRQCzQBiAgdYxYPZrhfC4VgZfThoFmqBAf62AsdaZv/yZBLMzNIWB9jBw6eyS54c3IYZyDijQegXk/iLNvSmLINieIMhYMVYpMlC8+vxOrQ+6dAAFmqSAsuxRs9+n/YyrAVwOhgEYaCgD75b73k2Km5wLCnRGAeX5XeV+XkPNn+Jshz4zy4cB9+Jmv9M6E2jpCAo0VYHeK4XNAkUAs0AYgIEGMHCZQnh4U+Ml54UCnVRAZifL/boGBABmQMyCYSBNBr7I9/2dTC90qg0KyP0Iuf+QIoCZIAzAQGQGXO67tyFOco4o0FkFeosGZdknI5ufGV+aMz7GPfVxL95XEsKzOhtQ6RgKtE0BjY3tpuK1wrxRkASVeoKi/1V6oFii/LC2xUfOFwWSUEBmj5H7ZVwN4HIwDMBAyQwUL/PZL4lASidRoK0KFK/blPsHSzZ/lbMKjs2sFQaay8DVCuHpbY2HnDcKJKlA7ykBs99SCDAThAEYGJKBLynPD04ygNJpFGi7AnK/n9wvGNL8zMqaOytjbBibKhm4Se5jmpnZte0xkPNHgaQVKB7V6ZnZfQuFADNBGICBFRkw+4HMfjfpoEnnUaBrCijPf0/ul65ofmZVVc6qODZ8NZ2BTZqYuHXXYh/9QQEU2GmnnbR+/e0Uwr9RBDALhAEYWMBAsZzv4wmSKIACCSigEB4n9x8tCABNn5lwfsyeYaBsBubWDdmkqakDEgh7dBEFUGBegeK1nQrhjTK7mUKA2SAMJMfA94uvBefjAf+iAAokqED/fQI8KVD27IrjMWNvJgM39Qr/6em9Egx3dBkFUGCxAr0nBcxOk/sNzASTmwmSqJuZqKsYl6LQP2Kx//kdBVAABXbS1NS95P4ZigCKABjoFAPXqijwea6fKI8CKLCSAhob20Vmz5f7L0gCnUoCVcwoOWbTrx6E8AFNTd1jJc/zNxRAARTYTgFNTu7fv0nwRgoBCgEYaB0D35LZiduZml9QAAVQYBAFZtcNuI/MziEBtC4BMDtv+uy8ivMz+6VCeHHxivBBfM62KIACKLCsAgrheJl9g0KAQgAGGslAsX6/y/3AZU3MH1AABVBgWAX67xU4Re5XkgQamQSY9Vcxq276MbPsk8qyBw7ra/ZDARRAgTUrUKwcJvcz5F7MOkg6aAAD9TDwXbk/Zc3GZUMUQAEUKEsBhXCo3P9Dc0uKkgTqSQLonp7ul8j91OKKXFle5jgogAIoMJQCxeVHuc9QCHA1hCtCFTKQZVf0nudnFb+h4hQ7oQAKVKiA8vxBvUIgvRkZs3DGvEoGruwlfve9K7Qvh0YBFECB0RVQnh/No4MVzgRJtlUm2+Ycu3ikz31M4+P7ju5KjoACKIACERVQlh3D0sIUAnwtMDADv+m/sGe/iHalKRRAARQoX4HeGgIhfIJEMHAiaM5slKsOMcbi53J/VbEKZ/ku5IgogAIoUKMC/XsEfPb7zOspBigGYGArA9/rrd63bt2tarQnTaMACqBA9Qooz+/Q+25z7jvOGDMr2sQ5rrYAAATWSURBVGAG3zwGQji3eI6ft/RVH3NoAQVQoGEKaGLi1nI/RWbfYTa4dTbYvERF8VDmmGzp3SCb50c3zI6cDgqgAArEV6D/CuI/lPuXKAQoBDrKwG96q2fyat74AYYWUQAF2qGA8vyh/WWGr+poIihzNsmxmn914iu97/enpg5ohwM5SxRAARSoWQFNT+/V+360eNFJ84M8iZgxWsjA1f038x1Rs41oHgVQAAXarYDy/P6956J5C+HCJMPPzSs6vtK7p2XTpn3a7TjOHgVQAAUapoDGx/fcelWAFxBRADSjACi+qnK5H9Ywu3A6KIACKNBNBWR2b5m9Uu7/x1cE3DgYmYHihr53y+wJmpnZo5sOo1cogAIo0AIFlOcH91+WclHkRMAsvBmz8OrHoVi8yuwcmZ1cPL7aAltwiiiAAiiQlgIK4dDeIkPu36IY4MrASAwsTPobNtwmLSfRWxRAARRosQLKsofI/V/k/r2REkEqs1z6WVxJuE4hfEDufyaSfovdz6mjAAqgQF8BTU4e0rtD231GZr+mIODqwAIGLu7fyPcUkj4hAwVQAAU6rEBvjYEQju8/Wlg8ulX9d8i00SSNr519VfUne/eN5Pn9O4w6XUMBFEABFFhJgd5NhMU7CYqrA+7FIi5NSlacSznjMTfLN/vD4nHSlXjgbyiAAiiAAgkqoLGx3fo3EhYFwSa5/4iCoHUF0U2z60V8s3dZv7hrn/X3E3QyXUYBFECBEhTQhg137i1A5H6G3IuvDLZQFDSoKCju6ZhbMnpMxVc77nuXMOwcAgVQAAVQAAW2V0CTk/vL/SS5v17uH5+9ufCnFATRCoIb5H6B3N8h91OVZQ8s3ia5/QjxGwqgAAqgAApEUkDT0/vJ/dj+kwZnzM5Ez5XZbykMRioMftqf2Z/RW4CneFMk399HIppmUAAFUAAFhlagmJn2liwO4cn9xYn+ozd7NfsVhcHWwmDzbHL/gcw+rRAymT1/NukfI/fbDi08O6IACqAACqBAUxXoPYpYrE0w9531Kf1HEounEIp7DLr2JELxwpyiXzP9fhb9Pb63NsPY2G5NHSPOCwVQAAVQAAWiK6CNGw+aXZHucLk/VmZPk/sLZq8avFohjPdfRPOxflItnlIoXk4T63HBm2Zn6T/r3WVv9gW5v18hTMn9dIXwdzJ7tkJ4fG8WX7ywiZflRGeHBlEABVAABRJSoPeq5KJoKK4qmD1AxfflITyyN9M2++P+UwxP6f07V1AUjzme0kvY7nOfb/v3pN5+WXaU3I/or6J4dy7LJwQUXUUBFEABFEABFEABFEABFEABFEABFEABFEABFEABFEABFEABFEABFEABFEABFEABFEABFEABFEABFEABFEABFEABFEABFEABFEABFEABFEABFEABFEABFEABFEABFEABFEABFEABFEABFEABFEABFEABFEABFEABFEABFEABFEABFEABFEABFEABFEABFEABFEABFEABFEABFEABFEABFEABFEABFEABFEABFEABFEABFEABFEABFEABFEABFEABFEABFEABFEABFEABFEABFEABFEABFEABFEABFEABFEABFEABFEABFEABFEABFEABFEABFEABFEABFEABFEABFEABFEABFECBxirw/wEB6qoNzLRWigAAAABJRU5ErkJggg==;fontFamily=Source Sans 3;fontSource=https%3A%2F%2Ffonts.googleapis.com%2Fcss%3Ffamily%3DSource%2BSans%2B3;fontColor=#CCCCCC;" parent="WqjskhSdfqY2lvUTHhSA-5" vertex="1">
          <mxGeometry x="490" y="404" width="22" height="22" as="geometry" />
        </mxCell>
        <mxCell id="rcqq1bqFRg6czQBBrsoR-45" value="" style="shape=image;verticalLabelPosition=bottom;labelBackgroundColor=default;verticalAlign=top;aspect=fixed;imageAspect=0;image=data:image/png,iVBORw0KGgoAAAANSUhEUgAAAgAAAAIACAYAAAD0eNT6AAAAAXNSR0IArs4c6QAAIABJREFUeAHtnQmYJVV5/tlBUAQE9w3ijigifyQCLgn6ICQaNcYYlWhUMIlbTJQkamzjEjE6Sjvd9X2neqZ10CidiBrc94UYYgTFKK64IIiCIqhsA8P777p9e6anp7d7b9Wp5fx4Hp7pvl1Vp857fu/3fadu1amdduI/FEABFEABFEABFEABFEABFEABFEABFEABFEABFEABFEABFEABFEABFEABFEABFEABFEABFEABFEABFEABFEABFEABFEABFEABFEABFEABFEABFEABFEABFEABFEABFEABFEABFEABFEABFEABFEABFEABFEABFEABFEABFEABFEABFEABFEABFEABFEABFEABFEABFEABFEABFEABFEABFEABFEABFEABFEABFEABFEABFEABFEABFEABFEABFEABFEABFEABFEABFEABFEABFEABFEABFEABFEABFEABFEABFEABFEABFEABFEABFEABFGiYAhob2015fgeZPUB5fpzM/lDuT1EIfyH3U2R2mtxfoRDeuN3/7m+Xuy/4/03b/T2E1/b3fVH/OE/rHdfsMcqyoxTCfZRlt9fMzB4Nk4TTQQEUQAEUQIF2KiD3AxXC4f1kfmovgbu/Ve6bFMKH5X6e3L8ns1/JXQ34/1q5Xyr38/vn945eMeH+NwrhT5XnR2ti4o7tHA3OGgVQAAVQAAVKUkDueyvPHySzJ8n95f1Z+Kfk/u3Z369rQEKvqqgo+vZNuX9otshZrxD+TiE8WXn+UE1NHVCSvBwGBVAABVAABepVoLg83pvJh/DM2aT/Jrl/vD9TrirBtv2418j9fxXCO3tfPxRfZ0xOHqKxsV3qHUlaRwEUQAEUQIFlFJD73WV2otz/fvb78X+T+//JfXOHZ/Mxi43iK4bzFELWvx/hSE1P77XMUPAxCqAACqAAClSjgMbH95X7Y2X2GmXZJ+V+FYk++r0IN8n9QrlPyuwZyvODqxltjooCKIACKJCsAtqw4c69O+Ddz1AI5zKzj57s13q14XKZndN/euFYjY/vmSy0dBwFUAAFUGAwBYrvm+V+hEJ4sdxn5H4Zs/vGJvyVCwOz38r9M3L/Z5mdoE2b9hmMBrZGARRAARTotAJav/52/Rl+8Vx88TjbyomFv7dVn5t6V3CKtRGKJw+knTsNNp1DARRAARTYXoHeLL9IAEUimPsOv/g+ua1JjfMefuwu762tUCyc5H7b7SnhNxRAARRAgU4o0Fu1bu5xvHfL/UoSPgXPdgyY3Sj3T/XXJji0E9DTCRRAARRIVYFicRmZndy7McydWf7wM+UUrzL8SMVNn+7Hpuof+o0CKIACrVJAk5P7L0j6PIdP0h+9eDH7QW9pY7MHtMoMnCwKoAAKdF0BTU/vtzXpz13KHT3okzjRcGkGiqWMxzQ5ed+u+4r+oQAKoEAjFdC6dbfqLQBTrCtP0idZL52sq9blgv6NpHdppEk4KRRAARTokgLK8/v33zT3i+1u4qonAVSdYDh+O8Z1S/9pkuJpgt275Df6ggIogAK1KtCb7RePas09skdSbEdSTHWcftorUCcnD6nVNDSOAiiAAm1WoLdYi7vL7NfM9nlsr2UMbLsqMDOzR5t9yLmjAAqgQBQFigVZ5P4CuX+tZQE/1Rkv/V7tiozZz+R+uqam7hXFRDSCAiiAAm1SQO536t1dbfYrEj+z/Y4ysKW3JkUIx7fJm5wrCqAAClSigLLsIf3lWHlmf7WZJH/v0tWG83uPro6N7VaJsTgoCqAACjRRgeIlLLMvZTm+v0Jfl4I6faFIGZSBH/ZfX8y7CJoYrDgnFECBchQo3s/em/W4F4upDBoo2R7NuszANb2lh/P8ruW4jaOgAAqgQAMU0Pj4vnJ/ldx/TuKn8IGBFRm4Qe4bZHbvBliXU0ABFECB4RTQpk37KIQXk/hXDPhdntXSt+Gv2myR+wxPDgwXe9gLBVCgJgV6l/rdT5F78b51kgAawMDwDBQ3x25Snh9ck51pFgVQAAVWV0AzM3toLvFfRuKn8IGBEhmYe9+Fa8OGO6/uRLZAARRAgUgKFOuf92/uu5igX2LQH37WyIy7u9pd279Z8A6R7E0zKIACKLCjAhob20UhPGs2+f+AxE/ih4GIDMwtj/3PxcqZOzqTT1AABVCgQgXk/jCZ/TdBP2LQ7+6slisWw4/tL3o32s7M7Fqh3Tk0CqAACuy0k/L8rr2bksxuIfmT/GGgIQyYfVUhPJIYhQIogAKlKyD3vXtr9btfR9BvSNAfftbIjLur2pmdwxMDpYc/DogCaSrQW7bX/Sly/xGJn8QPAy1gYO6JgTO0YcNt0oxa9BoFUGBkBWR25Oya/ecS9FsQ9Ls6o6Vfo1ytKR7HPaW4WXfkYMABUAAF0lBA69ffTu7vEN/zjxJ82Zfk3QwGipt1Qzg8jehFL1EABYZWQHOX+1mzn+TVjOTFOJQ1Djf11g/YtGmfoYMDO6IACnRTgWKFMZmdzeV+LvfDQKcZ+L7Mfr+bUYxeoQAKDKRA/ya/UzS3sEhZsw2Ow8wVBprKwNxXe5s0NXXAQMGCjVEABbqjQPHK0dlnhz/LjK/TMz4ScVMTcf3ndbnM/rg7EY2eoAAKrKpAf+3+0+RevHucBIEGMJAyA3NrB9x11cDBBiiAAu1WoPdon/s3SfwUPjAAAwsYuKp4r0e7oxtnjwIosKQCve/6Q3ix5hYJYcaX8oyPvsP/8gy8r3gMeMkgwocogALtU0ATE3fju35mewtmeyTA5RMg2rgX9wac0L5IxxmjAApsp0Bxk4/MfknwpwCAARhYMwNzTwqcoZmZPbYLKPyCAijQfAWKdcDl7ms2PDMiZn4wAAM7MvAVTU7et/kRjzNEARToKaAsO0ru3yP5M+ODARgogYHrFMKLCa8ogAINVkBjY7v1X9lbLPvJbAYNYAAGymOgWCmUGwQbnAE4tWQVUJbdnhv9KHoo/GCgUgbMfiL3hyUbaOk4CjRNAeX5Q+X+o0qNz0yqvJkUWqJluxm4ga8EmpYFOJ8kFei975tn+0ko7U4ojF87x+9Mue+dZOCl0yhQpwKant5L7jmzfi75wgAM1MjABcrzg+uMhbSNAkkp0F/Y539qND0ztnbO2Bg3xq0KBn4h98cmFYTpLArUoYCy7FFy/znJn1kfDMBAYxgwu7n3BNLY2C51xEXaRIFOK9Bby9/9HzVntCqqeI7J7BAGYGBUBt5XLELW6WBM51AgpgIaH99T7u9uTLVPkBw1SLI/DHWXAbNvaGrqHjFjJG2hQCcV0OTk/rOX/T9H8udyLwzAQIsYKF4odGQngzKdQoEYCmhy8hC5f6tFpu/urIYZK2MLA4MxYPZbhfD4GLGSNlCgUwoUq21xsx8zPoo/GGg1A8U9S2Yv7FRwpjMoUKUCMnuS3K9ttfGZLQ02W0Iv9Oo2A2eIJwSqTBscuwsKFEtsyn0LyZ+ZHwzAQKcYKF4mxMqBXUhT9KFsBTQzs6vc13fK8N2e0TBjZXxhYHAGziteXFZ2/OR4KNBaBfrL+n6Q5M+MDwZgIAEGvi/332ltwObEUaAsBYpLYgrhEwmYntnS4LMlNEOzrjJwudwPKyuOchwUaJ0Ccr+tQjiX5M+sDwZgIDkGzH6pEP5f6wI3J4wCoyrQW+DH/bzkTM+MrqszOvoF24MzYPYrmf3uqPGU/VGgNQooz+8g9wtJ/sz6YAAGkmdgbsGg41sTwDlRFBhWAbnfXe7fTd70zJYGny2hGZp1l4EbWDVw2KzCfq1QQFl2T7lfTPJn1gcDMAADixgwu1EhPLkVwZyTRIFBFJD7/eR+KaZfZPruzmiYrTK2MDAoA3OvO//zQWIr26JAoxXoJ/+fk/xJ/jAAAzCwKgNbZHZyo4M6J4cCa1Gg/53/jzD9qqZntjTobIntYaarDMy9ROipa4mxbIMCjVRAWXYXvvMn8VP8wQAMDMXAZrmf1MjgzkmhwEoKaOPGg+T+TYw/lPGZ2XV1Zke/YHswBq6T+6NXirX8DQUapUBvhT/380n+JH8YgAEYGJmB4tXoxzYqyHMyKLCUAtq0aR+5fxHTj2x6ZkqDzZTQC726zMDVcj9iqZjLZyjQCAW0bt2tFMJnSf4kfxiAARgomYEsu0JmD2hEsOckUGChApqZ2WP2xRYfxvQlm55ZXZdndfQNvgdl4FJNTh6yMPbyMwrUqoDGxnaR+wzJn+QPAzAAA5UzcHHxPpVagz6No8C8AnJ/E6av3PSDzhTYntklDHSXga8U91vNx2D+RYFaFJhd3ve5JH+SPwzAAAxEZ+BDmpnZtZbAT6MoILMT5H4Txo9ufGZ23Z3ZMbaM7SAMrCMToUB0BZRlD5R78WjKILCyLXrBAAzAQJkMmL0wegKgwXQV0IYNd5b7JSR/ih8YgAEYqJ2BLXL/o3QzEj2PpoA2bLjNLGxfw/S1m55ZVJmzKI4FT+1moFgy+GHREgENpadAccOJzM4h+ZP8YQAGYKBxDPxUU1P3SC8z0eMoCsjdMX3jTM/Mrd0zN8aP8SuTgf8r3sUSJSHQSDoKyOz5JH+SPwzAAAw0nIHiKu3Y2C7pZCd6WqkCxXdLcr8B4zfc+MykypxJcSx4ai8DZq+sNClw8DQUUJbdXmY/IfmT/GEABmCgNQxsUQiPSyNL0ctKFOjd9BfCJzB9a0zf3hkLs03GDgbKZuAqXhxUSWpM46ByfzPJn+QPAzAAA61loHhke+80Mha9LE0BhfBEmd2C8Vtr/LJnExyPGSoMtJEBs3eVlhg4UPcV0OTkfeV+Dcmf5A8DMAADnWDgL7ufuejhyAr0V/q7CNN3wvTM2No4Y+Oc4bZ8BjbL/diREwQH6LYCcn8fyZ/kDwMwAAOdY+DS4qmubmcweje0AnI/FdN3zvTMpsqfTaEpmraTAbOPSdp56CTBjt1UoPe9v9lvKQAoAFrNgNmv5H5VRf/z+msSfzsT//bj9oJuZjF6NZQCmpnZQ+5faXXg3x7wLpiUPqx1TLPsIzJ7RMHxUAYYYCeNj++pEI5Xln0Ov1Ast5SB6xTCoQNgz6ZdVkDu/9JSkEmSa02S3d3uTXVc0izWWuflWBQALY6bXyuK2S7nNfq2BgVmZzKPkvuWFoNMEdDd5L7a2J5XR/Kft5XGxnaTO0/MpMvfanw2++8hvGWeZf5NUAFNTu4v90tI/sxkWsmA2cl123b2XoMXtVI7knazk3OM8SkWejN7TN0eov2aFJD7ewleJP/WMmD24Jqss7XZ3r0HMYI1bZCwq2HgMrkfuBVofkhDAbn/eWsDfzVGIMC0TdfJyfvW7VZl2VH4iCK65Qy8v24f0X5EBZTnB7PUL0Gr5UGrKNgOi2ibJZtSCA/vgI4Uv20rfss+3xCetyTgfNg9BWaDFq/4LdtAHC9+Esmyh9TtToXwSAoAiunWM1CsAZPnB9ftJ9qvWAGZPbv1sJJs4yfbZmr+sIrtsurhZfb7+IkCoBMMZNlHVgWeDdqrQHGzh9yv7ASszUxIJOa441L7y01kdgJ+ogDoDANmT2tvhuPMV1RAZmd1BtS4iYbE3ky9H70i8BH+qBD+AE9RAHSIgSu1ceNBEaxDEzEVkNmJHYKUhNzMhBx7XB4b00NLtaUQnoivKAA6xsA7lmKdz1qqgMbH92XBH4JUx4JUUWycVLcl5f6UDuoau5CjveYV9LUX13V7uzPty2yCIEUB0DkGQnhi3SaV2dM6p2vzkhEFQvwx+aEmJm5dt79of0QFlOdHs9Y/yb+TSSqEPxnRHiPvLrOTO6lt/IRDkm+a5mb/OrJBOEB9CvReXer+TQIUBUAnGQjh6fW5a65lhfAXndS2acmI84lfIJndLLMj6/YY7Q+pwOzM/1UEJ5J/Zxkwe/aQ1ihtN7mf0ll9Sbrxk27zNL9AMzO7lmYYDhRHAWXZXVSs7tQ8oDAVY1IOAw1YvnR2XY2/xmMU2R1n4NQ4WYtWSlNAZu/qOJTlJBGScZt1/OvSDDPkgeT+EnxGAdBpBrLsCk1P7zekRdgttgK9G/+Kdz2T3Nqc3Dj31fl9SWxvLW5PIfwdPqMA6DwDIbxlMfv83kAFJO2sEP6n80CunhxIoN3X6GV1W1Ah/ANeowBIgIHNasDrt+v2e+Pb57EkglECwWi+uPvHug3Jjbb4LRm/mZ1Tt99ofwUF5L43K/4RkJIJSO6vXsEOUf4ks9ckpPd84cW/3b+6tvQYm50QxVg0MrgCcn8dwYgCICEGXje4S8rdQ+6vT0jvpZNCqskwzX5fNMv87uW6iKONrIAmJu4m92sJRhQACTFw+sjGGfEAs1fd3pSQ3hQAaSb9xeP+ghFtw+5lKyD3GQIRyT8xBt5ato8GPZ7c1yWm+eJkwO/pFQVXaf362w3qFbavSAFl2VHisT8CUXqBaH1FllrzYeX+dgoACu8EGVi3ZpOwYbUKyP3jCQJIwk8v4S8ec6/WWasfXSFkeI8CIDkGzK5Xnt91dYewRaUKKMuOSQ4+Et/iRJjq7xsrNdcaDq4QpvAfBUCSDJhNrMEibFKlAnL/TJLwUQSkmvQX9vvMKr21lmPL/R34jwIgUQY2K88PXotP2KYCBZTnv5coeAuTAD+nWgyZnVWBrQY6pNzfjQcpABJmIB/IMGxcngJy/3zC4JH4U0388/02O7s8Nw13JJmdhQcpAJJlwOxmhXCf4dzDXkMrILMTkoVuPgHwb9pFUAOWJpXZ2fiQAiBpBkJ459CJjB2HU0Du5yUNHck/7eRfjL/Zx4ZzT3l7yf0/8SEFQNIMFFcB8vz+5bmKI62ogEJ4fNLAkfxJ/nMFwKdXNEqEP86uwfERvEgBAAP+ngh2o4ne637NvgpwBB0Y8C/WHRFmH8P9JOOAF2HAt8jswXX7sfPtM/sn2BBstjJwXt2GVwifZTy2jgdXptK+OjlTtx87377MvkDAIeDAQI+B8+s2vEI4l7HAjzDQuyfnZk1N3atuT3a2fZkdCWgEGxjYysDX6zY7N+NuHQtm/2nP/ufH/+11e7Kz7fPMMcGG5L8dA9+q2+xyP58x2W5M5hMB/6ZZEFzLmwIriErKsnvK/SaCDcEGBrYycHEFVhvokHK/kPHYOh4k/TST/uJxf8VAJmLj1RWQ2dsINAQaGNiOgUtWd061W8j9IsZkuzFZnAz4Pb2i4Oeant6rWucldHSNj+8r92sINAQaGNiOgcvrDgNy/y5jst2YkPDTS/g7jrnZc+r2Zmfal9lpBBmCDAzswMAv6ja53H/IuOwwLjsmBJJiapp8W2Nju9Ttz9a3L/fd5X4JQYYgAwM7MHBN3QaX2U8Ylx3GJbVkR3+XKvDMTqzbn61vX2YnE2AIMDCwJAPX1W1wuV/O2Cw5NiTFpZJiSp+Z1b5Ud93xYeT25X4BAYYAAwNLMGB288gGG/EAcr+SsVlibFJKdPR1+WIvyx4yosXS3X32RSNHEVwILjCwAgM1f88o96sZnxXGh+S4fHJMQRuzkG4GH7Hncs8JLgQXGFiBgZmZPUa02Ui7y/1axmeF8UkhydHHlYqc32jDhtuMZLIUd9bExK1l9muCC8EFBlZgYNOmfeqMDzK7kfFZYXxIjislx1T+9tw6PdrKthXC8wgsBBYYWIWBycn96zS43LcwRquMEUVAKol+uX7W/tbOOmPEUG0ry75MYCGwwMAqDGTZ7YcyWAk7aWZmV8ZnlfEh+S+XFNP6PITDS7BcGodQnj+IwEJggYE1MJBld6krKmh8fE/GaA1jRBGQVrJfarxDGK/Lp61rV+7rCSwEFhhYAwNZds+6DN67T2epYMdnJDwY2J4Bs1/Jfe+6vNqadrVu3a3kfhXBfw3BH5Ntb7IU9TC7d13m1vT0fvgUn8LAGhkwe0ZdXm1Nu6z8t0aYUkx29HnHgieEQ+sytzZuPIjgj19hYM0MfL4ur7amXbl/EaDWDNSOCYEkmZYmNd5cJPc74VW8CgMDMJDn929NMo59opqauhcwDQATyT6tZL/UeGfZUbF9Ot+eJibuhl/xKwwMxMDp8/7h30UKyP0VwDQQTCTApZJiSp+F8PBFNor2qyYnD8Gv+BUGBmLgEkk7RzNpmxqS+4XANBBMFAApJful+hrCI+vyuEK4D37FrzAwMAMPq8uzjW1Xk5P3BaSBQaIAWCoppvSZ2WPqMrVCOBTP4lkYGJiBdXV5trHtKoR/AqSBQaIASCnZL9VXsxPrMrXMHoxn8SwMDMiA2U9U81s864oZy7Yrs28A0oAgLZUQ+CytosjsCcuaquI/yOxIPItnYWAIBrLsmIrt2Z7Dy/1+QDQERCT7tJL9UuNt9sd1OV15fjS+xbcwMAQDLA28LWzJ7DVANARESyUEPkurKDB72jYnxf1JeX4cvsW3MDAUA5cXL9OK69iGtib3i4BoKIjSSnYUNzuOt9nJddla7o/Gt/gWBoZkoMYneOqKGTu0y5v/hoSHZLhjMkxTk+fuYKpIH8j9sQR//AsDQzMwGcmqzW1G7q8DoKEBIgmmmfQXjvtf1uVumZ2Id/EuDAzJQJZdobGx3erybyPa5e7/IeEh8S1Mgun+HMKL6zKyQng8wR//wsAIDGTZo+ryb+3tKs/vCjwjwEMRkG7i3zb2f1uXkRXCk/Ev/oWBERgI4Y11+bf2duV+CvCMAM+2JEAiTFeLv6/LyDJ7Kv7FvzAwEgMX1uXf2tuV+/uBZyR4SPzpJv65sQ/hn+oyssyegX/xLwyMyMDExN3q8nBt7cp9d7lfDTwjwpN6Aky9/yG8ti4TK4Rn4V/8CwMjMmD2nLo8XFu7yrJHAc6I4KSe/Oi/VON3iArheXgYD8PAiAyE8O+1JeK6Gpb76YAzIjgkQL4CCeEtNXr4L/EwHoaBkRm4prgiXpePa2lX7hcCzsjgkABTL4JqXFNc7i/Cw3gYBkpgIM+PqyUR19Go3O8ks1sApwRwUk+Aqfc/hKwODxdtyuyleBgPw0ApDLy+Lh9Hb1dmzwGaUqDhCkDqBYD7hugG7jcos9PwMT6GgVIYOL8uH0dvVyH8O9CUAg0FAAXApugGni8A3F+Bj/ExDJTAwNwV8TvV5eVo7WpsbJfZ7w6vApoSoCH5UQC5vyeaeRc1NOvhV+NjfAwDJTEQwjMXWax7vyrLHggwJQFDAUAB4P4fdUUJhfBavIyXYaA0BrwuL0drV+6nAkxpwJAAKYI+GM28ixoq1iDAy3gZBkpj4JuLLNa9X+W+CWBKA4YCgALgo3VFCbm/GS/jZRgoiYHiPoCpqQPq8nOUduX+fYApCRiSHwWQ+6eiGHeJRuR+Bl7GyzBQKgMnLWG1bnykPL8DsJQKCwmQIujzdUUHmU3gZ/wMAyUyYPaGuvxcebsyexKwlAgLyY8CyP1LlRt3mQZkFvAzfoaBEhkw+8Iydmv/xwrhLcBSIiwUABQA7v9bV2SQ+0b8jJ9hoEQGzK7XzMwedXm60nblfh6wlAgLBQAFgPvXKjXtCgeX+5n4GT/DQMkM5PnRK9iunX/SunW3ktmNwFIyLBQBqRcBF9UVEeT+HvyMn2GgdAb+ti5PV9au8vw4QCkdlNSTH/13/15lpl3lwCzpjZ+J6RUwYHb2KtZr35/l/nJgqQAWrgCkXgT8qK5ooBA+gKfxNAyUzsDP6/J0Ze1yubB0SFJPfPR/rvi7rDLTrnJguX+I4I+vYaACBrLsLqvYr11/ltk3AKUCULgCkHYhkGVX1BUJ5P5xPI2nYaACBkJ4XF2+Lr1djY/vKffNgFIBKBQAaRcA7leXbtg1HlBmn8bTeBoGKmHg5Wu0YfM3U5Y9BEgqgST15Ef/3a+tKwLI7Av4Gl/DQCUMnFmXr0tvV2YnA0klkJAAuQKyuXTDrvGAcv8SvsbXMFAJAxeu0YbN30xm/woklUBCAZB6AVC8QUzauY4oIPf/xdf4GgYqYWBzZ1YE5GahSgAh+aee/Lf1f/daCgCzrxL88TYMVMbAYXX4uvQ25X45kFQGCYXAtkSYqhZ7l27aNRyQJ3vwNHG9QgZCePoabNjsTeR+IJBUCAnJL9Wkv7Dft60jCsj923gbb8NARQyE8MY6fF1qmzL7fQCpCBCS/8IkmPLPB5Zq2jUeTO7fx9t4GwYqYiCED6/Ris3dTO5/AyAVAUIBkHLSX9j3O9URAeT+Y7yNt2GgIgbMflKHr0ttU+4OIBUBQgGwMAmm+/PU1D1KNe0aDyb3y/A23oaBChkYH993jXZs5masFlYhHBQA6Sb9hWM/NXWvOtyvLLuC4I+/YaBCBvL8QXV4u7Q2uUxYIRwLkwA/p1sM5Pn9SzPsAAeS+1UEf/wNAxUyYPaEASzZrE377wDYAiAVAkLiTzfxz499TbMEuf8Gb+NtGKiUgZc0K6sPcDYyewBwVAoHyW8+Cab8b54/dABblrapzK7H3/gbBipkwOxtpRk29oEUwuOBo0I4Uk569H1b8ZfnR8f2dtGezG7G3/gbBipl4IN1eLuUNme/I3wRcFQKx7YkQEJMVwuzR5Ri2AEOUrx/AG/jbRionIGvD2DLZm3KS4AqhyPdpEfBs23szX4/tvPlvjvBH3/DQMUMmP06trdLa0/u7wWQigEhEW5LhKlqYXZCaaZd44HkvjfextswEIGB9etvt0ZbNmszZdl/AUgEQFJNfPR7rvgx+8PYztf4+L54G2/DQAQGzI6M7e9S2pP7JQASARASYdpXAcyeVIphBziIpqYOwNt4GwaiMPCUAazZjE01M7Or3G8CkCiApJ0AUy+AQvjT2K5Xnt8Bb+NtGIjCwMtj+3vk9pRltweOKHCQ/CkAnjmyYQc8gLLsLvgbf8NAFAbeOqA969+cRYCigEHyTz35F/0P4S9iO15Zdk+CPx6HgSgMnBnb3yO3pzw/DjiiwEERQBFw6siGHfAAmpq6F/7G3zAQgYEs+8iA9qx/c4XwROCIAAfJjwLI/QWxHa88vz/+xt8wEIGBLPtybH+P3J57tGbqAAAgAElEQVTcnwscEeCgAKAAMHvpyIYd8AByPwx/428YiMLAxQPas/7NZ18UchpwRIGDBJh6EWR2WmzHy/0I/I2/YSAKA9fE9vfI7c2uFPYm4IgCBwUABcArRzbsgAdQlh2Fv/E3DERiYGZmjwEtWu/mct8IHJHgSD0Bpt5/s9fEdruy7Bj8jb9hIBIDExN3jO3xkdqT+weBIxIcqSfA1Ptv9oaRzDrEzgrhkfgbf8NAJAZCOHQIm9a3C+8BiARG6smP/qt462ZspyuE4wn+eBwGIjEQwiNje3yk9uT+beCIBAdJMPX7IM4YyaxD7CyzE/A3/oaBSAzU8L6PIcLCtl2UZVcARyQ4KABSLwAmtzkvzk8K4Q/wN/6GgUgMhPC8OM4uqZXZxwCvB45IcFAApF4A5CXZds2HYaEvvE18j8rA367ZnHVvqLGxXWR2C4BEBST1JJhy/98R2/Nyfwr+xt8wEIkBs+iP+g4dU7Rp0z6AEQkMZv8pJ/75vr97aLMOuaPc/wyP43EYiMbA64e0avzdtHHjQYARDYz5JMC/6RZDM7FdLrOT8Tgeh4FoDLTnlcCziwDdHTCigUHiTzfxz419CB+ooQB4Dh7H4zAQjQGP7fGh25P7/QAjGhgUABQAHx7arEPuKPdT8Dgeh4FoDJw5pFXj78abwqJBQfJPPfkX/Q/hE7FdLvcXEPzxOQxEY+C9sT0+dHsK4XDAiAYGRUDqRUAInx3arEPuKPeX4HE8DgORGAjh34e0avzdlOcPBYxIYKSe/Oh/cQXg3Ngul/vL8Dgeh4FoDLw/tseHbk/uDwOMaGBwBSD1IiDLvjy0WYfcUSH8Ax7H4zAQjYH/HNKq8Xeb/U7y4YARDQwKgNQLALOvxna53F+Fx/E4DERiIMs+EtvjQ7cn92MBIxIYqSc/+l+8DfAbQ5t1yB1l9ho8jsdhIBIDNdzoO2Ro2GknCoBIUJD8uPpRMGD2naHNOuSOMnsDwR+fw0A0Bj4+pFXj7yaz3wWMaGCQBFMvhMx+ENvlcn8THsfjMBCJgRCir/UxdExRlh0FGJHASD350f+iALx0aLMOuaPc34rH8TgMRGOgRTcB8hggs3ISc0wGfj5kHh96N7m/neAfLfjHZIm2mhi7zM4e2qyxd2QhIAIDySEqA1dF97i7McZRx5jE3MTEHOucWrUQUJY9kOBAcICBaAz8JnoBEMIU4xttfEn+sRJtc9tp1VLA9yE4EBxgIBoDN9RQALyT8Y02vhQAzU3MscbmHbE9PnR7yvO7EhwIDjAQiQGzW4Y265A7yv3djG+k8SX5xUqyzW0nhGxIq8bfTevX347gQHCAgYgMzMzsGtPpMjuL8Y04vhQBzU3OMcYmhLfE9PdIbWndulsRHAgOMBCRgenpvUYy7YA7y+xsxjfi+MZIMrTR5CLjdQNatL7NJe0ss1sIEAQIGIjEwIYNt4npeLn/J2MbaWxJzE1OzLHO7RUx/T1yW7OvC72WAEGAgIFIDExNHTCyaQc4wOwbPz/K2EYaWwqAWEm2ye38zQD2rH9Tuf+UAEGAgIFIDExM3DGm65Vln2RsI40tBUCTE3OcczN7dkx/j9yW3P+PAEGAgIFIDExM3G1k0w5wAGXZ5xjbSGNLARAnyTZZ5xAeP4A9699UIXyWAEGAgIFIDExOHhLT9QrhXMY20tg2OTFxbnGKkyw7Jqa/R25L7v9BgCBAwEAkBiYn7zuyaQc4gEL4H8Y20tiSZOMk2SbrHNnfA4SCpTeVuxMgCBAwEImBLHvg0k6s5lO5n8/YRhrbJicmzi1WcXJgNU6u6Khyfz0BggABA9EYOKIiKy95WLl/nbGNNraxkgztNLOg2aLIC30tafpBPpTZSwkQBAgYiMbAwwbx56jbyv0ixjba2JKYm5mY44yL2S9H9Wv0/eX+5wQIAgQMRGPg2Jgml/t3GdtoYxsn0aScZJvcd7PvxPR2KW3J/SQCBAECBqIx8OhSjLvGg8wW+D9kbKONLQVAkxN09ef2pTXasjmbKc+PJkAQIGAgGgOPjel+mf2EsY02thQA1SfZ5mpsdk5Mb5fSlszuTYAgQMBAJAZC+INSjLvGg8jsZ4xtpLFNOfnRd8lseo22bM5mmpo6gABBgICBSAyE8MSY7pf7LxjbSGNLEmzu7DzG2LTpVcDzQaj3RkD36wgSBAkYiMBACH8y770Y/8r9GsY1wrjGSDC00fQCo10vApoPQHL/HkGCIAEDERgI4enzvovxL2/7jDCmJOamJ+Y45xf56l5p8UPunyH4EyhgIAIDITyrNOOu4UBy38y4RhhXioA4SbbJOodw+Bos2bxNFMI7CRIECRiIwsApMSOAzG5hXKOMKwmwyck5xrlNT+8X09ultSX31xEkCBIwEIWBvy7NuKscqFiWlDGNMqYk/xgJttltXL2KHZv7Z7mfSqAgUMBAFAZeEisSaHx8T8Y0yphSADQ7OccYnwti+br0duT+WAIFgQIGojDwstINvMwBNTFxa8Y0ypjGSDC00ewi433L2LD5H2ty8hACBYECBqIw8I+xIoKmp/djTKOMKcm52cm5+vFp4xoA84Go912h2Y0EC4IFDFTOwKvnfVf1v9q48SDGs/LxrD65pJ5c29B/sxdW7edKjy+z7xAsCBYwUDkDr6vUyAsOLvc7MZ6VjycFQBsSdNXnGHmJ7wU2L+dHhfBhggXBAgYqZ+BN5Th29aPI/e6MZ+XjSQFQdXJtw/FDOHR1RzZ4C7mfQbAgWMBA5Qy8NVYY4N6eyseS5N+G5Fz1ORZrbUxM3DqWrytpRyE8j+BPwICByhlYX4mBlzioJifvy3hWPp4UAVUn2KYf3+wHS9ivXR8pz48mWBAsYKByBjxWZFAIhzKelY8nBUDTE3TV5xfCB2J5urJ2tGnTPnLfQsAgYMBApQxsrMzEiw6sEA5nLCsdS5J/1cm1DccP4bWLrNfOX+X+fQIGAQMGKmTA7F2xooPMjmQsKxzLNiQnzrH6Ii3yK74rix8yO5uAQcCAgQoZMDurMgMvOrDMfpexrHAsSa7VJ9d2aHy/RdZr569yHyNgEDBgoEIGzM6OFR2U58cxlhWOZTuSE0m62nG6QWNju8XydKXtKIQnEzAIGDBQIQNm51Rq4gUHl/ujGcsKx7LaxELiboe+5y+wXLt/VAj3IWAQMGCgQgbMPhYrSvCSrwrHsR3JiSKi6nEym47l58rb0djYLjL7LQmAwAEDlTHwmcqN3G9AZicyjpWNI8m16uTahuObvTSWn6O0oyz7MkGDoAEDlTHwxShG3mmnnWT2BMaxsnGkAGhDgq76HM0eE8vPUdpRCFMEDYIGDFTGwHlRjFwUANzTQ5KuOgGmfvw8v0MsP0dpRyH8FcG/suBPQEo9YLhfEMXIc1cAnoqX8TIMVMbAT2N5OVo7rB5WGSwkf5J/wcDXY5lZZs8g+ONnGKiMgZlYXo7WjmZmdpX71UBTGTQUAmkXAt+OZWaZPRsf42MYqIiBEF4cy8tR21EInwCaiqBJO/lR/LhfHMvMvOETDxPHK2TA7MhYXo7aziw0rwacCsGhCEi5ELgklpm5nwcPE8crYmDucfndY3k5ajsK4XjAqQgckn/Kyb/o++WxzCz3F+FjfAwDlTAQbT2PWPFiazuamLi13G8CnErAST0Bpt7/X2w1WsU/yOyleBgPw0AFDHTlFcDLxSC5XwA4FYDDFYDUC4BrlvNc2Z/L7DQ8jIdhoAIGzE4o26+NOp7c1wNOBeBQAKRdAJhdH8vos1fxXoGH8TAMlM7AFrnfNpaPa2lHZk8DnNLBSTv5UfxIZjfHMjSv98a/xPBKGLgwlodra0fudweeSuChCEi9EBgf3zOGseV+Oh7GwzBQMgMhZDH8W3sbcv8x8JQMT+rJj/4XBeBhMcw9u6rnB/Av/oWBkhkI4ekx/Ft7G3LPgadkeEiAXAFxf3PV5taGDXeW+3X4F//CQKkMbFGW3b5q/zbi+DJ7EvCUCg/JjwKouA/gRpk9oiqTy313uX8U7+JdGCidgf+tyreNO25xp6PcNwNR6RBRCFAIFLPzl8h97zKNL/cjZhfyOhfP4lkYqICBrj//vzgYyf3zgFQBSCRAiqA5BopC4AJl2SdH+t/sC9yzg0+J1RUzkGXHLM6Rnf5dIfwDUFUMFcUAxQAMwAAMNJ2BqzQ2tlunE/7izs3eSXw4BQAFAAzAAAzAQNIMmJ21OD92/ndJO8v9sqQHnsq86ZU55wejMAAD1TJg9uzOJ/ylOiizaQoAqn8YgAEYgIEkGTC7pXi0dqn82PnPFMKfJDnoVNTVVtToi74wAANtYMDsq51P9Mt1UJOT+/N6YCp/ikAYgAEYSJSBf1kuPybxudy/mOjAU6G3oULnHOEUBmCgKgZCeGQSiX65Tsr9bygAqP5hAAZgAAYSY+ByzczsulxuTOLz/trixXuQqTLRAAZgAAZgIBUG3p5Ekl+tk3wNQPFDAQgDMAADSTGQ58etlhuT+LvMXpjUwFPhp1Lh009YhwEYWIqBn2psbJckEvxqndTExB1ldjNFADMAGIABGICBzjNg9rbV8mJSf1eWfa7zg04lvFQlzGdwAQMwkBYDITw8qQS/WmcVwl9RAFD5wwAMwAAMdJyBS4ql8FfLiUn9XRs3HsSiQBi/48ZPa5bDrJbxhoGlGHhzUsl9rZ2V2adJABQBMAADMAADnWUgy45aa05Maju5n9rZQacSXqoS5jO4gAEYSImBH3P5f5myRu4Hyn0zRQDVPwzAAAzAQAcZOH2Z9MfHhQJyf18HBz2lCpe+MqODARiAgaUYyPP7k+lXUEBmJ1AAUPnDAAzAAAx0jIHPr5D6+FOhQLE6ktx/1LGBpxpeqhrmM7iAARhIhYEQnkmWX4MCCuGfKACo/mEABmAABjrCwNVy33sN6Y9NlOd3ZWlgjN8R4zPDS2WGRz9hfXkGePPfIKWN3D9EAqAIgAEYgAEYaD0DIRw+SP5LfluZPaH1g758NUiljDYwAAMwkAIDIfxP8gl9UAE0Nrab3C+jCKD6hwEYgAEYaC0DITxv0PzH9sUTAWZvaO2gp1DZ0kdmcDAAAzCwEgO/0fj4viT0IRRQnh8s9y0UAVT/MAADMAADLWQgHyL1scu8AnL/aAsHfaWKkL8xY4ABGICBFBjI84fO5zL+HUIBhXA8BQCVPwzAAAzAQMsY+MwQKY9dFisg9wtaNvBU9ylU9/QRzmEABpZn4KTFuYzfh1BAITyTAoDqHwZgAAZgoCUMfLtY1n6IdMcuixWQ++5yv6QlA09FvHxFjDZoAwMwkAIDz12cx/h9BAXk/nIKAKp/GIABGICBhjPwc01P7zVCumPXxQoUz1LK/ZqGD3wKlS19ZAYHAzAAA8sxYPbKxfmL30tQQO5vpQCg+ocBGIABGGgoA9fK/cAS0h2HWKyApqbuIfebGjrwVMTLVcR8DhswAANpMLB+cd7i9xIVkPt7KQCo/mEABmAABhrGwBZNTd2rxHTHoRYroBD+X8MGnco+jcq+/eNsdqPcv9Ivok+X2Wlyf5HcXyaz18h9UiF8Vu5X4jGSKwwMzMD7Fucrfq9AAbl/CDgHhrP9CYxCY5gx/LHM/lVmj9C6dbdaix0l7awQDpf738v9W3gNr8HAqgxskdmD1+IvthlRAbkfIbNbgHJVKIdJGOzTjULjMwrhcUUyH8VuvWIgyx4ls0/jN/wGA8syMDOKz9h3QAVkdjYwLgsjSbwbSXzwcTT7jsweM6Cd1rS5zE6Q+8X4Dt/BwAIGzG6W2QPWZCI2KkcBuR/Gq4IXQJhqwqPfC4uEt2t8fM9yHLb0UTQxcWu55yQAvAcDfQbM3rW0W/i0UgV4IoAgRBDqMXBT8b6MSs226OAyez6P5OI//Oc3yezei+zBrzEUmC0A7qfi8guzwIWzQH5Oi4ciAD01ht8Wt9G7x8DsevxHIZAwAxsX+4LfIyog900Jw0eyTyvZ7zjeIfxVRLvt0JTcT9Lc44U7nlvqY0P/u87EZuX5wTuYgg/iKVAsvMClSGYgiRaBHs9py7ck9+cmqn/XExz9W7mIs+VdwV+iKaAQpghAFAGJMXDRWp/rj2FEub8nMf1Jjisnx27rU1z1yrJ7xvAWbayiQP8dATcQgCgCkmBg7rGjI1exRdQ/a3Jyf5n9JAn9U0589H2usAlhPKrBaGxlBeR+OsGHAiAJBkLIVnZDPX+dLQCek4T+JMFuz+5XH9+reONfPTFm2VY1Pr7v7KNJPyMAUQR0nIFrlWW3X9YINf5BY2O7qViIaPUAmnoCof/tZuQlNdqMppdTgBkIyT+B5PP25fhvwucyOzmBMSCBtzuBjzJ+xbsxdm+C1ziHRQpobGwXuZ9PAKIQ6DAD91uEfaN+1aZN+8jstx3Wf5Tkwb5tLxzMTmyU4TiZ7RVQnh/Hi4IoADqZgLLsy9vT3szfWKET/3XUfx9ppuM4q+0UkNlZnQSw7dUz5z/aDNDslduB3tBfZPbH+I8ioGMMbC5Wnm2o5TithQr0Hwu8rmMAjpY8SL5d0O/YhZw39We53x3vUQB0igGztzXVb5zXEgoohNd2CkASeBcS+PB9MLuleBPfEqg38iNl2RX4jyKgEwyY/VLr19+ukUbjpJZWoHczkvulnQCQ5D984uyOdpcsTXozP5X7p/AeBUAnGKj5fRvNdHgLzkohPL0TAHYniZHIhx/Lr7TAcltPUe4fxXsUAB1g4MJifYutYPNDuxSQ+8c7ACGJc/jE2Q3tsuxzbXKe3D+P7ygAWs1AseR2lh3VJt9xrosUKF7YwHPJBKJWB6Ki+DH7wiK0G/2r3C9sveapF530/62NNhkntzYFZPZSghFFQMsZ+NraaG/GVnK/uuV6d+PKEUl82HH8cZtuum2G6xt6FpqZ2VVZ9mUCEkVAixm4vKH22uG0NDV1QIt1HjZhsF+Xig2zE3YAmw/aq4DcD5N7sZgDRkWDdjIwNXVAGxwos8fgM+JMixk4sw0+4xwHVGD2JQ6vbzGU7UxaFBvljVuWPWpA5GvZfNZjr8ZnFAAtZeBKbdx4UC3GodFqFdD09F5y/3ZLwSwvkZCU26rl66p1SDlHVwjn4jEKgFYyYPaMclzAURqpgMwewcuCCE6tDE7ujV8LQBMTd8Nf+KuV/jL7WCOTFidVrgJy91YCysy9rTP38s47hEPLdUO5R5u9z+Yf8RYFQOsYKF5hnWX3LNcNHK2RCmh8fF+Z/aB1kFIAlJdI26plg19K0v+K7XJ8RQHQQgb+spHJipOqRgFl2TEqVnpqayLgvFMtBn6jLLt9Na4Y7agyeyF+Ivm3kIH/lLTzaPSzd+sUkNlrWghrqomPfm8r+tY1zWxFUSL3q/ATBUDLGLicu/6bFk0inU/xkgeZ/XfLgCURbkuEqWqxWWYPjmSTNTUj9zPxEcm/VQwUr9hmwZ81+buzG80Grt+ZXSr4160ClwSYauJf2O/zNTOzRxOMKbNn4x+SfwsZOKMJ/uEcalZAITyrhfAuTAb8nGZRlNdsnZ3kfoTcr8U/FAAtY+DrxU2rdfuH9huigNxnWgYwST/NpL943F9Wl4U0NXUvmf0M35D8W8WA2fXF0vB1+YZ2G6iAJif3l9lPWgUyCXBxMkz195fHtpTy/GC5X4xfSP6tYyCEF8f2C+21QAG5P1ruW1oHNIVAqol/W79DeGOsR5kUwuFy/yk+Ifm3kIGPxvJJC1Iep7hYAYXw2hZCvS0RUAykq4XZWXK/7WKmy/xdIfwF3/mT+FsaIy/TxMQdy/QDx+qYAhob20VmH2sp4OkmPwqf+bH/odxPKtuW/Uv+78cXJP+WMrC5WPytbF9wvA4qoPXrbyf3IpDOB1X+RYu2MfApmT1m1MudxfroMnub3K/DD8SDFjPwgg6mKrpUlQL9x5sIeiT+tiX+xef7Xbn/i/L8OLnvvRa/aHLyvnI/VSF8guWySfotTvrzXjhzLdyzDQpspwDrAxD8OhD85oNg8e9Ncr9IIXxYIUzJbELub+6/HfM9vVUxzX7ZsT4v7D8/p1fQf22the92wZ9fUKBQQCFkBEQKARiAARhoHQPFuyl+h0yGAkMrIPfd5f5FzN868zPbS2+2x5gz5vMMbJHZiUMHfnZEgXkFZi+R3onnnikAKAJhAAZawkAI/zQfv/kXBUZWoHiERO6bCQAtCQDMhOZnQvwLC2kxYHZO8Tj3yEGfA6DAQgXk/tcUABQAMAADMNBYBr6p6en9FsZtfkaB0hRQCG/B/I01f1ozHWa2jDcMbGMgy67gpr/SUh0HWkqB3kqB7u+jCKAIgAEYgIHGMHCd8vzopWI2n6FAqQpo3bpbyf1LmL8x5t82C2BGhBYwkBoDxQvc/qjUIM/BUGAlBeR+oNy/RxFAEQADMAADtTLwopViNX9DgUoUkPv9xMppqc026C8zbBhoDgNvrSS4c1AUWIsC/TXWb2AGUOsMgIDcnIDMWDAWsRj4kGZmdl1LnGYbFKhMAZk9VWa3UARQBMAADMBAFAa+ok2b9qksqHNgFBhEgdkXrbwC40cxfqzZBe0wk4WBZjJwsfL8DoPEZ7ZFgcoVUAhvpAigCIABGICByhi4VJOTh1QezGkABQZVQNLOcp/E/JWZnxlZM2dkjAvjUj0DxUI/Zg8YNC6zPQpEU6BXBBTvWicgVB8Q0BiNYSAVBq6W+xHRAjkNocCwChR3ps4+IvheigCuBMAADMDAiAyY/Vbuxw4bj9kPBaIrIPfdVbyVihlKKjMU+gnrMFA+A9cpyx4VPYDTIAqMqkB/yeDPUASMOAMoP6gQqNEUBprPQPH69ZNGjcPsjwK1KSD3vWX2BYoAigAYgAEYWCMDZjcX66vUFrhpGAXKUqB4P7Xcz8f8azR/82cmzB4ZIxiojoEtCuGZZcVfjoMCtSvQKwKy7L8oAigCYAAGYGAZBoqZv/uf1x6wOQEUKFuBYulKZdknMf8y5q9uRsFsDW1hoOkMmN0osyeVHXc5Hgo0RgGNj++pED5AEUARAAMwAANbGbhW7o9tTKDmRFCgKgU0M7OHQvh3zL/V/MzOmj474/xgtDoGfqM8/72q4i3HRYHGKdBfLGgjRQBFAAzAQMIMXCX3hzUuQHNCKFC1Av13B5yRsPmZVVU3q0JbtG02A2Y/U54/qOo4y/FRoLEK9IoAs3+lCGAWCAMwkBADP1YI92lsYObEUCCmAnJ/lcxuSSgANHt2wuyR8YGBqhj4tqam7hEzvtIWCjRegWLlK5ldTxHATBAGYKCTDBRroWzceFDjgzEniAJ1KDC7TsAxcr+yk+ZnRlXVjIrjwlYbGJjR9PRedcRV2kSB1iggs3vL/bsUAcwCYQAGOsLAGRob26U1QZgTRYE6FZD7gQrh3I6Yvw2zE86RWTQMlM/ATTJ7fp2xlLZRoJUKFJfLZHYWRQCzQBiAgdYxYPZrhfC4VgZfThoFmqBAf62AsdaZv/yZBLMzNIWB9jBw6eyS54c3IYZyDijQegXk/iLNvSmLINieIMhYMVYpMlC8+vxOrQ+6dAAFmqSAsuxRs9+n/YyrAVwOhgEYaCgD75b73k2Km5wLCnRGAeX5XeV+XkPNn+Jshz4zy4cB9+Jmv9M6E2jpCAo0VYHeK4XNAkUAs0AYgIEGMHCZQnh4U+Ml54UCnVRAZifL/boGBABmQMyCYSBNBr7I9/2dTC90qg0KyP0Iuf+QIoCZIAzAQGQGXO67tyFOco4o0FkFeosGZdknI5ufGV+aMz7GPfVxL95XEsKzOhtQ6RgKtE0BjY3tpuK1wrxRkASVeoKi/1V6oFii/LC2xUfOFwWSUEBmj5H7ZVwN4HIwDMBAyQwUL/PZL4lASidRoK0KFK/blPsHSzZ/lbMKjs2sFQaay8DVCuHpbY2HnDcKJKlA7ykBs99SCDAThAEYGJKBLynPD04ygNJpFGi7AnK/n9wvGNL8zMqaOytjbBibKhm4Se5jmpnZte0xkPNHgaQVKB7V6ZnZfQuFADNBGICBFRkw+4HMfjfpoEnnUaBrCijPf0/ul65ofmZVVc6qODZ8NZ2BTZqYuHXXYh/9QQEU2GmnnbR+/e0Uwr9RBDALhAEYWMBAsZzv4wmSKIACCSigEB4n9x8tCABNn5lwfsyeYaBsBubWDdmkqakDEgh7dBEFUGBegeK1nQrhjTK7mUKA2SAMJMfA94uvBefjAf+iAAokqED/fQI8KVD27IrjMWNvJgM39Qr/6em9Egx3dBkFUGCxAr0nBcxOk/sNzASTmwmSqJuZqKsYl6LQP2Kx//kdBVAABXbS1NS95P4ZigCKABjoFAPXqijwea6fKI8CKLCSAhob20Vmz5f7L0gCnUoCVcwoOWbTrx6E8AFNTd1jJc/zNxRAARTYTgFNTu7fv0nwRgoBCgEYaB0D35LZiduZml9QAAVQYBAFZtcNuI/MziEBtC4BMDtv+uy8ivMz+6VCeHHxivBBfM62KIACKLCsAgrheJl9g0KAQgAGGslAsX6/y/3AZU3MH1AABVBgWAX67xU4Re5XkgQamQSY9Vcxq276MbPsk8qyBw7ra/ZDARRAgTUrUKwcJvcz5F7MOkg6aAAD9TDwXbk/Zc3GZUMUQAEUKEsBhXCo3P9Dc0uKkgTqSQLonp7ul8j91OKKXFle5jgogAIoMJQCxeVHuc9QCHA1hCtCFTKQZVf0nudnFb+h4hQ7oQAKVKiA8vxBvUIgvRkZs3DGvEoGruwlfve9K7Qvh0YBFECB0RVQnh/No4MVzgRJtlUm2+Ycu3ikz31M4+P7ju5KjoACKIACERVQlh3D0sIUAnwtMDADv+m/sGe/iHalKRRAARQoX4HeGgIhfIJEMHAiaM5slKsOMcbi53J/VbEKZ/ku5IgogAIoUKMC/XsEfPb7zOspBigGYGArA9/rrd63bt2tarQnTaMACqBA9Qooz+/Q+25z7jvOGDMr2sQ5rrYAAATWSURBVGAG3zwGQji3eI6ft/RVH3NoAQVQoGEKaGLi1nI/RWbfYTa4dTbYvERF8VDmmGzp3SCb50c3zI6cDgqgAArEV6D/CuI/lPuXKAQoBDrKwG96q2fyat74AYYWUQAF2qGA8vyh/WWGr+poIihzNsmxmn914iu97/enpg5ohwM5SxRAARSoWQFNT+/V+360eNFJ84M8iZgxWsjA1f038x1Rs41oHgVQAAXarYDy/P6956J5C+HCJMPPzSs6vtK7p2XTpn3a7TjOHgVQAAUapoDGx/fcelWAFxBRADSjACi+qnK5H9Ywu3A6KIACKNBNBWR2b5m9Uu7/x1cE3DgYmYHihr53y+wJmpnZo5sOo1cogAIo0AIFlOcH91+WclHkRMAsvBmz8OrHoVi8yuwcmZ1cPL7aAltwiiiAAiiQlgIK4dDeIkPu36IY4MrASAwsTPobNtwmLSfRWxRAARRosQLKsofI/V/k/r2REkEqs1z6WVxJuE4hfEDufyaSfovdz6mjAAqgQF8BTU4e0rtD231GZr+mIODqwAIGLu7fyPcUkj4hAwVQAAU6rEBvjYEQju8/Wlg8ulX9d8i00SSNr519VfUne/eN5Pn9O4w6XUMBFEABFFhJgd5NhMU7CYqrA+7FIi5NSlacSznjMTfLN/vD4nHSlXjgbyiAAiiAAgkqoLGx3fo3EhYFwSa5/4iCoHUF0U2z60V8s3dZv7hrn/X3E3QyXUYBFECBEhTQhg137i1A5H6G3IuvDLZQFDSoKCju6ZhbMnpMxVc77nuXMOwcAgVQAAVQAAW2V0CTk/vL/SS5v17uH5+9ufCnFATRCoIb5H6B3N8h91OVZQ8s3ia5/QjxGwqgAAqgAApEUkDT0/vJ/dj+kwZnzM5Ez5XZbykMRioMftqf2Z/RW4CneFMk399HIppmUAAFUAAFhlagmJn2liwO4cn9xYn+ozd7NfsVhcHWwmDzbHL/gcw+rRAymT1/NukfI/fbDi08O6IACqAACqBAUxXoPYpYrE0w9531Kf1HEounEIp7DLr2JELxwpyiXzP9fhb9Pb63NsPY2G5NHSPOCwVQAAVQAAWiK6CNGw+aXZHucLk/VmZPk/sLZq8avFohjPdfRPOxflItnlIoXk4T63HBm2Zn6T/r3WVv9gW5v18hTMn9dIXwdzJ7tkJ4fG8WX7ywiZflRGeHBlEABVAABRJSoPeq5KJoKK4qmD1AxfflITyyN9M2++P+UwxP6f07V1AUjzme0kvY7nOfb/v3pN5+WXaU3I/or6J4dy7LJwQUXUUBFEABFEABFEABFEABFEABFEABFEABFEABFEABFEABFEABFEABFEABFEABFEABFEABFEABFEABFEABFEABFEABFEABFEABFEABFEABFEABFEABFEABFEABFEABFEABFEABFEABFEABFEABFEABFEABFEABFEABFEABFEABFEABFEABFEABFEABFEABFEABFEABFEABFEABFEABFEABFEABFEABFEABFEABFEABFEABFEABFEABFEABFEABFEABFEABFEABFEABFEABFEABFEABFEABFEABFEABFEABFEABFEABFEABFEABFEABFEABFEABFEABFEABFEABFEABFEABFEABFECBxirw/wEB6qoNzLRWigAAAABJRU5ErkJggg==;fontFamily=Source Sans 3;fontSource=https%3A%2F%2Ffonts.googleapis.com%2Fcss%3Ffamily%3DSource%2BSans%2B3;fontColor=#CCCCCC;" parent="WqjskhSdfqY2lvUTHhSA-5" vertex="1">
          <mxGeometry x="490" y="284" width="22" height="22" as="geometry" />
        </mxCell>
        <mxCell id="WqjskhSdfqY2lvUTHhSA-3" value="FINISH" style="dashed=0;html=1;rounded=1;strokeColor=#647687;fontSize=12;align=center;fontStyle=1;strokeWidth=2;fontColor=#CCCCCC;fillColor=#647687;fontFamily=Source Sans 3;fontSource=https%3A%2F%2Ffonts.googleapis.com%2Fcss%3Ffamily%3DSource%2BSans%2B3;" parent="WqjskhSdfqY2lvUTHhSA-5" vertex="1">
          <mxGeometry x="15" y="420" width="70" height="20" as="geometry" />
        </mxCell>
      </root>
    </mxGraphModel>
  </diagram>
</mxfile>
